<svg width="200" height="230" viewBox="0 0 200 230" fill="none" xmlns="http://www.w3.org/2000/svg">
<g clip-path="url(#clip0_3083_4479)">
<rect width="200" height="200" rx="6" fill="#98E3FF"/>
<rect width="297" height="168" transform="translate(-47.9995 16)" fill="#98E3FF"/>
<g clip-path="url(#clip1_3083_4479)">
<rect x="17.938" y="10" width="165" height="180" rx="10" fill="white"/>
<g filter="url(#filter0_d_3083_4479)">
<rect width="165" height="50" transform="translate(17.8755 10)" fill="#F6F7FB"/>
<path d="M91.7784 35.4434L89.4324 36.3374C89.3748 36.3604 89.3227 36.3952 89.2794 36.4397C89.2361 36.4841 89.2026 36.5372 89.1811 36.5954L88.2714 38.9176C88.235 38.9923 88.1784 39.0553 88.108 39.0994C88.0377 39.1435 87.9564 39.1668 87.8734 39.1668C87.7904 39.1668 87.7091 39.1435 87.6388 39.0994C87.5684 39.0553 87.5118 38.9923 87.4754 38.9176L86.5837 36.5654C86.5608 36.5077 86.526 36.4555 86.4817 36.412C86.4374 36.3686 86.3844 36.335 86.3264 36.3134L83.9923 35.4014C83.909 35.369 83.8374 35.3121 83.787 35.2382C83.7365 35.1644 83.7095 35.0769 83.7095 34.9873C83.7095 34.8978 83.7365 34.8103 83.787 34.7364C83.8374 34.6625 83.909 34.6057 83.9923 34.5733L86.3323 33.6732C86.391 33.6527 86.4445 33.6194 86.4889 33.5759C86.5334 33.5323 86.5678 33.4795 86.5897 33.4212L87.4754 31.1171C87.5077 31.0336 87.5644 30.9618 87.6381 30.9112C87.7118 30.8606 87.799 30.8335 87.8884 30.8335C87.9777 30.8335 88.0649 30.8606 88.1386 30.9112C88.2123 30.9618 88.269 31.0336 88.3013 31.1171L89.193 33.4632C89.2159 33.5217 89.2506 33.5748 89.2948 33.6192C89.3391 33.6636 89.3921 33.6983 89.4504 33.7212L91.7844 34.6333C91.862 34.669 91.9277 34.7263 91.9735 34.7985C92.0194 34.8707 92.0434 34.9547 92.0428 35.0403C92.0422 35.1259 92.0169 35.2094 91.97 35.281C91.9231 35.3525 91.8565 35.4089 91.7784 35.4434Z" fill="#4255FF"/>
<path d="M99.3409 26.5627L96.9949 27.4568C96.9373 27.4798 96.8852 27.5146 96.8419 27.5591C96.7986 27.6035 96.7651 27.6566 96.7436 27.7148L95.8339 30.037C95.7975 30.1117 95.7409 30.1747 95.6705 30.2188C95.6002 30.2628 95.5189 30.2862 95.4359 30.2862C95.3529 30.2862 95.2716 30.2628 95.2013 30.2188C95.1309 30.1747 95.0743 30.1117 95.0379 30.037L94.1462 27.6848C94.1233 27.6271 94.0885 27.5748 94.0442 27.5314C93.9999 27.488 93.9469 27.4544 93.8889 27.4328L91.5548 26.5207C91.4715 26.4884 91.3999 26.4315 91.3495 26.3576C91.299 26.2837 91.272 26.1963 91.272 26.1067C91.272 26.0171 91.299 25.9297 91.3495 25.8558C91.3999 25.7819 91.4715 25.725 91.5548 25.6927L93.8948 24.7926C93.9535 24.772 94.007 24.7388 94.0514 24.6953C94.0959 24.6517 94.1303 24.5989 94.1522 24.5406L95.0379 22.2365C95.0702 22.153 95.1269 22.0812 95.2006 22.0306C95.2743 21.98 95.3615 21.9529 95.4509 21.9529C95.5402 21.9529 95.6274 21.98 95.7011 22.0306C95.7748 22.0812 95.8315 22.153 95.8638 22.2365L96.7555 24.5826C96.7784 24.6411 96.8131 24.6942 96.8573 24.7385C96.9016 24.7829 96.9546 24.8177 97.0129 24.8406L99.3469 25.7527C99.4245 25.7883 99.4902 25.8457 99.536 25.9179C99.5819 25.9901 99.6059 26.0741 99.6053 26.1597C99.6047 26.2452 99.5794 26.3288 99.5325 26.4003C99.4856 26.4719 99.419 26.5283 99.3409 26.5627Z" fill="#4255FF"/>
<path d="M113.444 42.1099L111.098 43.0039C111.041 43.0269 110.989 43.0617 110.945 43.1062C110.902 43.1506 110.869 43.2037 110.847 43.2619L109.937 45.5841C109.901 45.6588 109.844 45.7218 109.774 45.7659C109.704 45.81 109.622 45.8333 109.539 45.8333C109.456 45.8333 109.375 45.81 109.305 45.7659C109.234 45.7218 109.178 45.6588 109.141 45.5841L108.25 43.2319C108.227 43.1742 108.192 43.122 108.148 43.0785C108.103 43.0351 108.05 43.0015 107.992 42.9799L105.658 42.0679C105.575 42.0355 105.503 41.9786 105.453 41.9047C105.402 41.8309 105.375 41.7434 105.375 41.6538C105.375 41.5643 105.402 41.4768 105.453 41.4029C105.503 41.329 105.575 41.2722 105.658 41.2398L107.998 40.3397C108.057 40.3192 108.11 40.2859 108.155 40.2424C108.199 40.1988 108.234 40.146 108.256 40.0877L109.141 37.7836C109.174 37.7001 109.23 37.6283 109.304 37.5777C109.378 37.5271 109.465 37.5 109.554 37.5C109.644 37.5 109.731 37.5271 109.805 37.5777C109.878 37.6283 109.935 37.7001 109.967 37.7836L110.859 40.1297C110.882 40.1882 110.917 40.2413 110.961 40.2857C111.005 40.3301 111.058 40.3648 111.116 40.3877L113.45 41.2998C113.528 41.3355 113.594 41.3928 113.64 41.465C113.685 41.5372 113.709 41.6212 113.709 41.7068C113.708 41.7924 113.683 41.8759 113.636 41.9475C113.589 42.019 113.523 42.0754 113.444 42.1099Z" fill="#4255FF"/>
<path d="M109.176 21.4857C109.522 21.139 110.084 21.139 110.431 21.4857L113.89 24.9444C114.236 25.2911 114.236 25.8531 113.89 26.1997L109.803 30.2861L105.089 25.5721L109.176 21.4857Z" fill="#7583FF"/>
<path fill-rule="evenodd" clip-rule="evenodd" d="M110.431 21.4857C110.084 21.139 109.522 21.139 109.176 21.4857L86.8607 43.8006C86.514 44.1472 86.514 44.7093 86.8607 45.0559L90.3194 48.5146C90.666 48.8613 91.2281 48.8613 91.5747 48.5146L107.723 32.3668L103.009 27.653L105.09 25.5717L109.804 30.2855L113.89 26.1997C114.236 25.8531 114.236 25.2911 113.89 24.9444L110.431 21.4857Z" fill="#4255FF"/>
</g>
<path d="M113.375 165C113.375 160.582 116.957 157 121.375 157H161.375C165.794 157 169.375 160.582 169.375 165V184H121.375C116.957 184 113.375 180.418 113.375 176V165Z" fill="#4255FF"/>
<path d="M123.807 170.868C123.807 169.023 125.292 167.619 127.128 167.619C128.964 167.619 130.44 169.023 130.44 170.868C130.44 171.714 130.116 172.452 129.603 173.001L130.215 173.739L129.459 174.369L128.829 173.622C128.352 173.937 127.758 174.099 127.128 174.099C125.292 174.099 123.807 172.704 123.807 170.868ZM124.914 170.868C124.914 172.128 125.877 173.082 127.128 173.082C127.506 173.082 127.839 172.992 128.127 172.83L127.245 171.786L128.001 171.147L128.892 172.2C129.162 171.858 129.324 171.381 129.324 170.868C129.324 169.617 128.37 168.636 127.128 168.636C125.877 168.636 124.914 169.617 124.914 170.868ZM131.359 172.2V169.464H132.448V172.11C132.448 172.821 132.871 173.127 133.438 173.127C134.005 173.127 134.428 172.821 134.428 172.101V169.464H135.517V172.173C135.517 173.487 134.563 174.117 133.429 174.117C132.304 174.117 131.359 173.496 131.359 172.2ZM137.103 168.933C136.752 168.933 136.455 168.654 136.455 168.294C136.455 167.934 136.752 167.655 137.103 167.655C137.445 167.655 137.742 167.934 137.742 168.294C137.742 168.654 137.445 168.933 137.103 168.933ZM136.563 174V169.464H137.643V174H136.563ZM138.203 174L140.921 170.427H138.671V169.464H142.811L140.111 173.037H142.685V174H138.203ZM145.976 174V169.464H147.047V170.112C147.236 169.68 147.677 169.374 148.271 169.374C148.901 169.374 149.324 169.662 149.54 170.166C149.819 169.599 150.368 169.374 151.025 169.374C152.024 169.374 152.6 170.076 152.6 171.192V174H151.52V171.345C151.52 170.733 151.232 170.337 150.71 170.337C150.188 170.337 149.81 170.769 149.81 171.39V174H148.739V171.345C148.739 170.733 148.451 170.337 147.929 170.337C147.425 170.337 147.047 170.769 147.047 171.39V174H145.976ZM153.451 171.768V171.732C153.451 170.274 154.468 169.338 155.827 169.338C157.177 169.338 158.068 170.355 158.068 171.624C158.068 171.624 158.068 171.822 158.05 172.002H154.522C154.558 172.722 155.089 173.19 155.89 173.19C156.439 173.19 156.772 173.01 157.114 172.668L157.762 173.298C157.177 173.919 156.538 174.108 155.854 174.108C154.432 174.108 153.451 173.19 153.451 171.768ZM154.549 171.246H156.97C156.97 170.706 156.457 170.256 155.827 170.256C155.152 170.256 154.594 170.697 154.549 171.246Z" fill="white"/>
<path d="M169.875 77C169.875 72.5817 166.294 69 161.875 69H34.8755C30.4572 69 26.8755 72.5817 26.8755 77V107H161.875C166.294 107 169.875 103.418 169.875 99V77Z" fill="#EDEFF4"/>
<path d="M40.7254 86V79.727H41.8504V82.175H44.8654V79.727H45.9814V86H44.8654V83.192H41.8504V86H40.7254ZM47.1054 83.768V83.732C47.1054 82.274 48.1224 81.338 49.4814 81.338C50.8314 81.338 51.7224 82.355 51.7224 83.624C51.7224 83.624 51.7224 83.822 51.7044 84.002H48.1764C48.2124 84.722 48.7434 85.19 49.5444 85.19C50.0934 85.19 50.4264 85.01 50.7684 84.668L51.4164 85.298C50.8314 85.919 50.1924 86.108 49.5084 86.108C48.0864 86.108 47.1054 85.19 47.1054 83.768ZM48.2034 83.246H50.6244C50.6244 82.706 50.1114 82.256 49.4814 82.256C48.8064 82.256 48.2484 82.697 48.2034 83.246ZM52.7759 86.909C52.9289 86.963 53.1179 86.981 53.2799 86.981C53.4419 86.981 53.5679 86.954 53.6759 86.882C53.7749 86.819 53.8649 86.684 53.9369 86.495L54.0539 86.171L52.1549 81.464H53.2439L54.5759 84.884L55.8269 81.464H56.9159L54.8819 86.738C54.7649 87.053 54.6119 87.341 54.3959 87.548C54.1079 87.818 53.7389 87.926 53.3069 87.926C53.1179 87.926 52.9199 87.899 52.7759 87.854V86.909ZM59.9484 84.587V82.445H59.3814V81.464H59.9484V79.727H61.0284V81.464H62.0274V82.445H61.0284V84.47C61.0284 84.965 61.2084 85.145 61.5954 85.145C61.7124 85.145 61.8384 85.136 61.9734 85.109V86.072C61.8204 86.108 61.6224 86.126 61.4154 86.126C60.7944 86.126 59.9484 85.946 59.9484 84.587ZM62.8249 86V79.727H63.8959V82.094C64.0939 81.671 64.5799 81.374 65.2189 81.374C66.2719 81.374 66.8749 82.076 66.8749 83.192V86H65.8039V83.345C65.8039 82.733 65.4709 82.337 64.8949 82.337C64.3099 82.337 63.8959 82.769 63.8959 83.39V86H62.8249ZM67.7597 83.768V83.732C67.7597 82.274 68.7767 81.338 70.1357 81.338C71.4857 81.338 72.3767 82.355 72.3767 83.624C72.3767 83.624 72.3767 83.822 72.3587 84.002H68.8307C68.8667 84.722 69.3977 85.19 70.1987 85.19C70.7477 85.19 71.0807 85.01 71.4227 84.668L72.0707 85.298C71.4857 85.919 70.8467 86.108 70.1627 86.108C68.7407 86.108 67.7597 85.19 67.7597 83.768ZM68.8577 83.246H71.2787C71.2787 82.706 70.7657 82.256 70.1357 82.256C69.4607 82.256 68.9027 82.697 68.8577 83.246ZM73.2399 86V81.464H74.3109V82.139C74.5269 81.671 75.0129 81.374 75.6609 81.374C75.7779 81.374 75.9399 81.392 75.9849 81.401V82.445C75.8589 82.418 75.7059 82.4 75.5349 82.4C74.7879 82.4 74.3109 82.868 74.3109 83.615V86H73.2399ZM76.3993 83.768V83.732C76.3993 82.274 77.4163 81.338 78.7753 81.338C80.1253 81.338 81.0163 82.355 81.0163 83.624C81.0163 83.624 81.0163 83.822 80.9983 84.002H77.4703C77.5063 84.722 78.0373 85.19 78.8383 85.19C79.3873 85.19 79.7203 85.01 80.0623 84.668L80.7103 85.298C80.1253 85.919 79.4863 86.108 78.8023 86.108C77.3803 86.108 76.3993 85.19 76.3993 83.768ZM77.4973 83.246H79.9183C79.9183 82.706 79.4053 82.256 78.7753 82.256C78.1003 82.256 77.5423 82.697 77.4973 83.246ZM82.1496 84.416L81.9606 79.727H83.2656L83.0766 84.416H82.1496ZM81.9966 85.496C81.9966 85.145 82.2846 84.875 82.6176 84.875C82.9506 84.875 83.2386 85.145 83.2386 85.496C83.2386 85.847 82.9506 86.117 82.6176 86.117C82.2846 86.117 81.9966 85.847 81.9966 85.496ZM87.1581 86V79.727H88.2831V84.983H90.7761V86H87.1581ZM91.2792 83.732C91.2792 82.373 92.3772 81.329 93.7542 81.329C95.1222 81.329 96.2292 82.373 96.2292 83.732C96.2292 85.091 95.1222 86.135 93.7542 86.135C92.3772 86.135 91.2792 85.091 91.2792 83.732ZM92.3502 83.732C92.3502 84.533 92.9532 85.154 93.7542 85.154C94.5462 85.154 95.1582 84.533 95.1582 83.732C95.1582 82.931 94.5462 82.31 93.7542 82.31C92.9532 82.31 92.3502 82.931 92.3502 83.732ZM96.9306 83.732C96.9306 82.373 98.0286 81.329 99.4056 81.329C100.774 81.329 101.881 82.373 101.881 83.732C101.881 85.091 100.774 86.135 99.4056 86.135C98.0286 86.135 96.9306 85.091 96.9306 83.732ZM98.0016 83.732C98.0016 84.533 98.6046 85.154 99.4056 85.154C100.198 85.154 100.81 84.533 100.81 83.732C100.81 82.931 100.198 82.31 99.4056 82.31C98.6046 82.31 98.0016 82.931 98.0016 83.732ZM102.78 86V79.727H103.851V83.39L105.525 81.464H106.767L104.994 83.489L106.956 86H105.732L104.301 84.173L103.851 84.677V86H102.78ZM107.184 85.199L107.877 84.614C108.066 84.92 108.489 85.181 109.074 85.181C109.695 85.181 109.884 84.92 109.884 84.686C109.884 84.308 109.344 84.218 108.642 83.966C107.976 83.723 107.526 83.381 107.526 82.688C107.526 81.815 108.264 81.329 109.128 81.329C109.884 81.329 110.388 81.617 110.703 82.013L110.1 82.652C109.911 82.427 109.605 82.256 109.11 82.256C108.768 82.256 108.561 82.418 108.561 82.661C108.561 83.003 108.939 83.048 109.704 83.327C110.541 83.624 110.919 84.02 110.919 84.677C110.919 85.46 110.352 86.117 109.056 86.117C108.111 86.117 107.463 85.739 107.184 85.199ZM114.073 84.659V79.727H115.153V84.515C115.153 84.956 115.297 85.145 115.693 85.145C115.792 85.145 115.918 85.136 116.017 85.109V86.072C115.891 86.108 115.693 86.126 115.504 86.126C114.919 86.126 114.073 85.964 114.073 84.659ZM117.251 80.933C116.9 80.933 116.603 80.654 116.603 80.294C116.603 79.934 116.9 79.655 117.251 79.655C117.593 79.655 117.89 79.934 117.89 80.294C117.89 80.654 117.593 80.933 117.251 80.933ZM116.711 86V81.464H117.791V86H116.711ZM118.89 86V79.727H119.961V83.39L121.635 81.464H122.877L121.104 83.489L123.066 86H121.842L120.411 84.173L119.961 84.677V86H118.89ZM123.201 83.768V83.732C123.201 82.274 124.218 81.338 125.577 81.338C126.927 81.338 127.818 82.355 127.818 83.624C127.818 83.624 127.818 83.822 127.8 84.002H124.272C124.308 84.722 124.839 85.19 125.64 85.19C126.189 85.19 126.522 85.01 126.864 84.668L127.512 85.298C126.927 85.919 126.288 86.108 125.604 86.108C124.182 86.108 123.201 85.19 123.201 83.768ZM124.299 83.246H126.72C126.72 82.706 126.207 82.256 125.577 82.256C124.902 82.256 124.344 82.697 124.299 83.246ZM131.412 86.909C131.565 86.963 131.754 86.981 131.916 86.981C132.078 86.981 132.204 86.954 132.312 86.882C132.411 86.819 132.501 86.684 132.573 86.495L132.69 86.171L130.791 81.464H131.88L133.212 84.884L134.463 81.464H135.552L133.518 86.738C133.401 87.053 133.248 87.341 133.032 87.548C132.744 87.818 132.375 87.926 131.943 87.926C131.754 87.926 131.556 87.899 131.412 87.854V86.909ZM135.831 83.732C135.831 82.373 136.929 81.329 138.306 81.329C139.674 81.329 140.781 82.373 140.781 83.732C140.781 85.091 139.674 86.135 138.306 86.135C136.929 86.135 135.831 85.091 135.831 83.732ZM136.902 83.732C136.902 84.533 137.505 85.154 138.306 85.154C139.098 85.154 139.71 84.533 139.71 83.732C139.71 82.931 139.098 82.31 138.306 82.31C137.505 82.31 136.902 82.931 136.902 83.732ZM141.626 84.2V81.464H142.715V84.11C142.715 84.821 143.138 85.127 143.705 85.127C144.272 85.127 144.695 84.821 144.695 84.101V81.464H145.784V84.173C145.784 85.487 144.83 86.117 143.696 86.117C142.571 86.117 141.626 85.496 141.626 84.2ZM146.522 81.95L147.341 79.727H148.502L147.341 81.95H146.522ZM148.676 86V81.464H149.747V82.139C149.963 81.671 150.449 81.374 151.097 81.374C151.214 81.374 151.376 81.392 151.421 81.401V82.445C151.295 82.418 151.142 82.4 150.971 82.4C150.224 82.4 149.747 82.868 149.747 83.615V86H148.676ZM151.836 83.768V83.732C151.836 82.274 152.853 81.338 154.212 81.338C155.562 81.338 156.453 82.355 156.453 83.624C156.453 83.624 156.453 83.822 156.435 84.002H152.907C152.943 84.722 153.474 85.19 154.275 85.19C154.824 85.19 155.157 85.01 155.499 84.668L156.147 85.298C155.562 85.919 154.923 86.108 154.239 86.108C152.817 86.108 151.836 85.19 151.836 83.768ZM152.934 83.246H155.355C155.355 82.706 154.842 82.256 154.212 82.256C153.537 82.256 152.979 82.697 152.934 83.246ZM40.1584 96.199L40.8514 95.614C41.0404 95.92 41.4634 96.181 42.0484 96.181C42.6694 96.181 42.8584 95.92 42.8584 95.686C42.8584 95.308 42.3184 95.218 41.6164 94.966C40.9504 94.723 40.5004 94.381 40.5004 93.688C40.5004 92.815 41.2384 92.329 42.1024 92.329C42.8584 92.329 43.3624 92.617 43.6774 93.013L43.0744 93.652C42.8854 93.427 42.5794 93.256 42.0844 93.256C41.7424 93.256 41.5354 93.418 41.5354 93.661C41.5354 94.003 41.9134 94.048 42.6784 94.327C43.5154 94.624 43.8934 95.02 43.8934 95.677C43.8934 96.46 43.3264 97.117 42.0304 97.117C41.0854 97.117 40.4374 96.739 40.1584 96.199ZM44.9543 95.587V93.445H44.3873V92.464H44.9543V90.727H46.0343V92.464H47.0333V93.445H46.0343V95.47C46.0343 95.965 46.2143 96.145 46.6013 96.145C46.7183 96.145 46.8443 96.136 46.9793 96.109V97.072C46.8263 97.108 46.6283 97.126 46.4213 97.126C45.8003 97.126 44.9543 96.946 44.9543 95.587ZM47.7767 95.2V92.464H48.8657V95.11C48.8657 95.821 49.2887 96.127 49.8557 96.127C50.4227 96.127 50.8457 95.821 50.8457 95.101V92.464H51.9347V95.173C51.9347 96.487 50.9807 97.117 49.8467 97.117C48.7217 97.117 47.7767 96.496 47.7767 95.2ZM52.7831 94.732C52.7831 93.391 53.7731 92.365 55.0511 92.365C55.8161 92.365 56.3471 92.698 56.5001 93.121V90.727H57.5801V97H56.5001V96.343C56.3471 96.766 55.8161 97.099 55.0511 97.099C53.7731 97.099 52.7831 96.073 52.7831 94.732ZM53.8541 94.732C53.8541 95.524 54.4301 96.118 55.1951 96.118C55.9781 96.118 56.5811 95.524 56.5811 94.732C56.5811 93.94 55.9781 93.346 55.1951 93.346C54.4301 93.346 53.8541 93.94 53.8541 94.732ZM58.9107 97.909C59.0637 97.963 59.2527 97.981 59.4147 97.981C59.5767 97.981 59.7027 97.954 59.8107 97.882C59.9097 97.819 59.9997 97.684 60.0717 97.495L60.1887 97.171L58.2897 92.464H59.3787L60.7107 95.884L61.9617 92.464H63.0507L61.0167 97.738C60.8997 98.053 60.7467 98.341 60.5307 98.548C60.2427 98.818 59.8737 98.926 59.4417 98.926C59.2527 98.926 59.0547 98.899 58.9107 98.854V97.909ZM64.3141 91.933C63.9631 91.933 63.6661 91.654 63.6661 91.294C63.6661 90.934 63.9631 90.655 64.3141 90.655C64.6561 90.655 64.9531 90.934 64.9531 91.294C64.9531 91.654 64.6561 91.933 64.3141 91.933ZM63.7741 97V92.464H64.8541V97H63.7741ZM65.9538 97V92.464H67.0248V93.112C67.2318 92.68 67.7448 92.374 68.4018 92.374C69.4908 92.374 70.1208 93.076 70.1208 94.192V97H69.0408V94.345C69.0408 93.733 68.6898 93.337 68.0778 93.337C67.4658 93.337 67.0248 93.769 67.0248 94.39V97H65.9538ZM72.0475 94.714C72.0475 95.497 72.6235 96.082 73.3885 96.082C74.1715 96.082 74.7745 95.497 74.7745 94.714C74.7745 93.94 74.1715 93.346 73.3885 93.346C72.6235 93.346 72.0475 93.94 72.0475 94.714ZM70.9765 94.714C70.9765 93.391 71.9665 92.365 73.2445 92.365C74.0095 92.365 74.5405 92.698 74.6935 93.121V92.464H75.7735V96.244C75.7735 97.198 75.6745 97.954 75.0085 98.476C74.6035 98.791 74.0275 98.98 73.4065 98.98C72.5605 98.98 71.8315 98.764 71.2105 98.323L71.7325 97.522C72.1915 97.828 72.6775 98.017 73.2895 98.017C73.6855 98.017 74.0455 97.927 74.2885 97.747C74.6665 97.468 74.7205 97 74.7205 96.595V96.37C74.5225 96.73 74.0005 97.036 73.2445 97.036C71.9665 97.036 70.9765 96.037 70.9765 94.714ZM79.0536 94.723C79.0536 93.337 80.1516 92.32 81.5196 92.32C82.1946 92.32 82.8156 92.545 83.3376 93.103L82.6716 93.796C82.3656 93.481 82.0056 93.301 81.5196 93.301C80.7276 93.301 80.1246 93.904 80.1246 94.723C80.1246 95.542 80.7276 96.145 81.5196 96.145C82.0056 96.145 82.3656 95.965 82.6716 95.65L83.3376 96.343C82.8156 96.901 82.1946 97.126 81.5196 97.126C80.1516 97.126 79.0536 96.109 79.0536 94.723ZM84.1384 97V90.727H85.2094V93.094C85.4074 92.671 85.8934 92.374 86.5324 92.374C87.5854 92.374 88.1884 93.076 88.1884 94.192V97H87.1174V94.345C87.1174 93.733 86.7844 93.337 86.2084 93.337C85.6234 93.337 85.2094 93.769 85.2094 94.39V97H84.1384ZM89.0732 94.768V94.732C89.0732 93.274 90.0902 92.338 91.4492 92.338C92.7992 92.338 93.6902 93.355 93.6902 94.624C93.6902 94.624 93.6902 94.822 93.6722 95.002H90.1442C90.1802 95.722 90.7112 96.19 91.5122 96.19C92.0612 96.19 92.3942 96.01 92.7362 95.668L93.3842 96.298C92.7992 96.919 92.1602 97.108 91.4762 97.108C90.0542 97.108 89.0732 96.19 89.0732 94.768ZM90.1712 94.246H92.5922C92.5922 93.706 92.0792 93.256 91.4492 93.256C90.7742 93.256 90.2162 93.697 90.1712 94.246ZM94.5534 97V92.464H95.6244V93.112C95.8134 92.68 96.2544 92.374 96.8484 92.374C97.4784 92.374 97.9014 92.662 98.1174 93.166C98.3964 92.599 98.9454 92.374 99.6024 92.374C100.601 92.374 101.177 93.076 101.177 94.192V97H100.097V94.345C100.097 93.733 99.8094 93.337 99.2874 93.337C98.7654 93.337 98.3874 93.769 98.3874 94.39V97H97.3164V94.345C97.3164 93.733 97.0284 93.337 96.5064 93.337C96.0024 93.337 95.6244 93.769 95.6244 94.39V97H94.5534ZM102.766 91.933C102.415 91.933 102.118 91.654 102.118 91.294C102.118 90.934 102.415 90.655 102.766 90.655C103.108 90.655 103.405 90.934 103.405 91.294C103.405 91.654 103.108 91.933 102.766 91.933ZM102.226 97V92.464H103.306V97H102.226ZM104.208 94.723C104.208 93.337 105.306 92.32 106.674 92.32C107.349 92.32 107.97 92.545 108.492 93.103L107.826 93.796C107.52 93.481 107.16 93.301 106.674 93.301C105.882 93.301 105.279 93.904 105.279 94.723C105.279 95.542 105.882 96.145 106.674 96.145C107.16 96.145 107.52 95.965 107.826 95.65L108.492 96.343C107.97 96.901 107.349 97.126 106.674 97.126C105.306 97.126 104.208 96.109 104.208 94.723ZM110.868 96.208C111.606 96.208 112.074 95.884 112.074 95.308V94.813C111.939 94.903 111.606 94.957 111.039 95.047C110.418 95.146 110.13 95.344 110.13 95.686C110.13 96.019 110.4 96.208 110.868 96.208ZM110.679 97.126C109.68 97.126 109.077 96.604 109.077 95.794C109.077 94.912 109.725 94.408 111.129 94.201C111.948 94.084 112.074 94.066 112.074 93.787V93.742C112.074 93.49 111.867 93.22 111.246 93.22C110.715 93.22 110.265 93.454 109.932 93.85L109.302 93.256C109.743 92.662 110.436 92.32 111.264 92.32C112.488 92.32 113.127 92.86 113.127 93.832V95.794C113.127 96.136 113.307 96.145 113.487 96.145C113.496 96.145 113.532 96.145 113.532 96.145V96.982C113.388 97.063 113.208 97.081 113.028 97.081C112.686 97.081 112.524 96.946 112.443 96.865C112.362 96.775 112.317 96.685 112.281 96.568C111.957 96.973 111.336 97.126 110.679 97.126ZM114.302 95.659V90.727H115.382V95.515C115.382 95.956 115.526 96.145 115.922 96.145C116.021 96.145 116.147 96.136 116.246 96.109V97.072C116.12 97.108 115.922 97.126 115.733 97.126C115.148 97.126 114.302 96.964 114.302 95.659ZM119.268 97V90.727H120.348V93.121C120.501 92.698 121.032 92.365 121.797 92.365C123.075 92.365 124.065 93.391 124.065 94.732C124.065 96.073 123.075 97.099 121.797 97.099C121.032 97.099 120.501 96.766 120.348 96.343V97H119.268ZM120.267 94.732C120.267 95.524 120.87 96.118 121.653 96.118C122.418 96.118 122.994 95.524 122.994 94.732C122.994 93.94 122.418 93.346 121.653 93.346C120.87 93.346 120.267 93.94 120.267 94.732ZM124.757 94.732C124.757 93.373 125.855 92.329 127.232 92.329C128.6 92.329 129.707 93.373 129.707 94.732C129.707 96.091 128.6 97.135 127.232 97.135C125.855 97.135 124.757 96.091 124.757 94.732ZM125.828 94.732C125.828 95.533 126.431 96.154 127.232 96.154C128.024 96.154 128.636 95.533 128.636 94.732C128.636 93.931 128.024 93.31 127.232 93.31C126.431 93.31 125.828 93.931 125.828 94.732ZM130.606 97V92.464H131.677V93.112C131.884 92.68 132.397 92.374 133.054 92.374C134.143 92.374 134.773 93.076 134.773 94.192V97H133.693V94.345C133.693 93.733 133.342 93.337 132.73 93.337C132.118 93.337 131.677 93.769 131.677 94.39V97H130.606ZM135.629 94.732C135.629 93.391 136.619 92.365 137.897 92.365C138.662 92.365 139.193 92.698 139.346 93.121V90.727H140.426V97H139.346V96.343C139.193 96.766 138.662 97.099 137.897 97.099C136.619 97.099 135.629 96.073 135.629 94.732ZM136.7 94.732C136.7 95.524 137.276 96.118 138.041 96.118C138.824 96.118 139.427 95.524 139.427 94.732C139.427 93.94 138.824 93.346 138.041 93.346C137.276 93.346 136.7 93.94 136.7 94.732ZM141.162 96.199L141.855 95.614C142.044 95.92 142.467 96.181 143.052 96.181C143.673 96.181 143.862 95.92 143.862 95.686C143.862 95.308 143.322 95.218 142.62 94.966C141.954 94.723 141.504 94.381 141.504 93.688C141.504 92.815 142.242 92.329 143.106 92.329C143.862 92.329 144.366 92.617 144.681 93.013L144.078 93.652C143.889 93.427 143.583 93.256 143.088 93.256C142.746 93.256 142.539 93.418 142.539 93.661C142.539 94.003 142.917 94.048 143.682 94.327C144.519 94.624 144.897 95.02 144.897 95.677C144.897 96.46 144.33 97.117 143.034 97.117C142.089 97.117 141.441 96.739 141.162 96.199ZM145.517 96.451C145.517 96.109 145.814 95.839 146.147 95.839C146.48 95.839 146.768 96.109 146.768 96.451C146.768 96.802 146.48 97.072 146.147 97.072C145.814 97.072 145.517 96.802 145.517 96.451Z" fill="black"/>
<g filter="url(#filter1_d_3083_4479)">
<rect x="26.8755" y="110.928" width="59.5966" height="19" rx="4" fill="white"/>
<path fill-rule="evenodd" clip-rule="evenodd" d="M36.8011 117.051H38.8819C39.2409 117.051 39.5321 117.303 39.5321 117.614V118.79C39.5321 119.101 39.2409 119.353 38.8819 119.353H36.972L36.486 119.725C36.3488 119.83 36.1509 119.732 36.1509 119.559V117.614C36.1509 117.303 36.4419 117.051 36.8011 117.051Z" fill="#EEAAFF"/>
<ellipse cx="36.3338" cy="121.75" rx="0.685372" ry="0.685374" fill="#A533FF"/>
<path d="M37.476 123.806C37.476 123.175 36.9864 122.664 36.3337 122.664C35.681 122.664 35.1914 123.175 35.1914 123.806H37.476Z" fill="#A533FF"/>
<ellipse cx="38.39" cy="121.75" rx="0.685372" ry="0.685374" fill="#A533FF"/>
<path d="M39.5136 123.596C39.4185 123.065 38.9682 122.664 38.3898 122.664C37.8114 122.664 37.3612 123.065 37.2661 123.596C37.2455 123.71 37.3422 123.806 37.4589 123.806H39.3208C39.4375 123.806 39.5342 123.71 39.5136 123.596Z" fill="#A533FF"/>
<path d="M33.6388 121.486C34.493 121.486 35.1854 120.794 35.1854 119.94C35.1854 119.086 34.493 118.393 33.6388 118.393C32.7847 118.393 32.0923 119.086 32.0923 119.94C32.0923 120.794 32.7847 121.486 33.6388 121.486Z" fill="#E372FF"/>
<path d="M35.8326 123.806C35.8838 123.806 35.9344 123.795 35.9807 123.773C36.0269 123.751 36.0676 123.719 36.0996 123.679C36.1317 123.639 36.1543 123.592 36.1657 123.542C36.1772 123.492 36.1772 123.44 36.1658 123.39C35.934 122.451 34.9282 121.744 33.6382 121.744C32.3482 121.744 31.3429 122.451 31.1111 123.39C31.0997 123.44 31.0997 123.492 31.1112 123.542C31.1226 123.592 31.1452 123.639 31.1773 123.679C31.2093 123.719 31.25 123.751 31.2962 123.773C31.3424 123.795 31.3931 123.806 31.4443 123.806H35.8326Z" fill="#E372FF"/>
<path d="M44.5223 123.928V118.672H42.8213V117.655H47.3483V118.672H45.6473V123.928H44.5223ZM47.2797 121.696V121.66C47.2797 120.202 48.2967 119.266 49.6557 119.266C51.0057 119.266 51.8967 120.283 51.8967 121.552C51.8967 121.552 51.8967 121.75 51.8787 121.93H48.3507C48.3867 122.65 48.9177 123.118 49.7187 123.118C50.2677 123.118 50.6007 122.938 50.9427 122.596L51.5907 123.226C51.0057 123.847 50.3667 124.036 49.6827 124.036C48.2607 124.036 47.2797 123.118 47.2797 121.696ZM48.3777 121.174H50.7987C50.7987 120.634 50.2857 120.184 49.6557 120.184C48.9807 120.184 48.4227 120.625 48.3777 121.174ZM54.3354 123.136C55.0734 123.136 55.5414 122.812 55.5414 122.236V121.741C55.4064 121.831 55.0734 121.885 54.5064 121.975C53.8854 122.074 53.5974 122.272 53.5974 122.614C53.5974 122.947 53.8674 123.136 54.3354 123.136ZM54.1464 124.054C53.1474 124.054 52.5444 123.532 52.5444 122.722C52.5444 121.84 53.1924 121.336 54.5964 121.129C55.4154 121.012 55.5414 120.994 55.5414 120.715V120.67C55.5414 120.418 55.3344 120.148 54.7134 120.148C54.1824 120.148 53.7324 120.382 53.3994 120.778L52.7694 120.184C53.2104 119.59 53.9034 119.248 54.7314 119.248C55.9554 119.248 56.5944 119.788 56.5944 120.76V122.722C56.5944 123.064 56.7744 123.073 56.9544 123.073C56.9634 123.073 56.9994 123.073 56.9994 123.073V123.91C56.8554 123.991 56.6754 124.009 56.4954 124.009C56.1534 124.009 55.9914 123.874 55.9104 123.793C55.8294 123.703 55.7844 123.613 55.7484 123.496C55.4244 123.901 54.8034 124.054 54.1464 124.054ZM57.5014 121.651C57.5014 120.265 58.5994 119.248 59.9674 119.248C60.6424 119.248 61.2634 119.473 61.7854 120.031L61.1194 120.724C60.8134 120.409 60.4534 120.229 59.9674 120.229C59.1754 120.229 58.5724 120.832 58.5724 121.651C58.5724 122.47 59.1754 123.073 59.9674 123.073C60.4534 123.073 60.8134 122.893 61.1194 122.578L61.7854 123.271C61.2634 123.829 60.6424 124.054 59.9674 124.054C58.5994 124.054 57.5014 123.037 57.5014 121.651ZM62.5861 123.928V117.655H63.6571V120.022C63.8551 119.599 64.3411 119.302 64.9801 119.302C66.0331 119.302 66.6361 120.004 66.6361 121.12V123.928H65.5651V121.273C65.5651 120.661 65.2321 120.265 64.6561 120.265C64.0711 120.265 63.6571 120.697 63.6571 121.318V123.928H62.5861ZM70.2062 123.928V119.392H71.2772V120.04C71.4662 119.608 71.9072 119.302 72.5012 119.302C73.1312 119.302 73.5542 119.59 73.7702 120.094C74.0492 119.527 74.5982 119.302 75.2552 119.302C76.2542 119.302 76.8302 120.004 76.8302 121.12V123.928H75.7502V121.273C75.7502 120.661 75.4622 120.265 74.9402 120.265C74.4182 120.265 74.0402 120.697 74.0402 121.318V123.928H72.9692V121.273C72.9692 120.661 72.6812 120.265 72.1592 120.265C71.6552 120.265 71.2772 120.697 71.2772 121.318V123.928H70.2062ZM77.6811 121.696V121.66C77.6811 120.202 78.6981 119.266 80.0571 119.266C81.4071 119.266 82.2981 120.283 82.2981 121.552C82.2981 121.552 82.2981 121.75 82.2801 121.93H78.7521C78.7881 122.65 79.3191 123.118 80.1201 123.118C80.6691 123.118 81.0021 122.938 81.3441 122.596L81.9921 123.226C81.4071 123.847 80.7681 124.036 80.0841 124.036C78.6621 124.036 77.6811 123.118 77.6811 121.696ZM78.7791 121.174H81.2001C81.2001 120.634 80.6871 120.184 80.0571 120.184C79.3821 120.184 78.8241 120.625 78.7791 121.174Z" fill="#282E3E"/>
<rect x="27.1255" y="111.178" width="59.0966" height="18.5" rx="3.75" stroke="#D9DDE8" stroke-width="0.5"/>
</g>
<g filter="url(#filter2_d_3083_4479)">
<rect x="89.0078" y="110.928" width="57.4565" height="19" rx="4" fill="white"/>
<path d="M94.8755 119.925C94.8755 119.607 95.1334 119.349 95.4515 119.349H102.418C102.736 119.349 102.994 119.607 102.994 119.925V121.132C102.994 121.45 102.736 121.708 102.418 121.708H95.4515C95.1334 121.708 94.8755 121.45 94.8755 121.132V119.925Z" fill="#98F1D1"/>
<path d="M98.0571 120.529C98.0571 120.377 98.2006 120.254 98.3776 120.254H101.796C101.973 120.254 102.117 120.377 102.117 120.529C102.117 120.68 101.973 120.803 101.796 120.803H98.3776C98.2006 120.803 98.0571 120.68 98.0571 120.529Z" fill="#009AA4"/>
<path fill-rule="evenodd" clip-rule="evenodd" d="M97.4058 120.067C97.4058 120.008 97.3828 119.95 97.3414 119.908L97.3401 119.907L97.3398 119.906C97.2978 119.865 97.2413 119.842 97.1823 119.842C97.1233 119.842 97.0668 119.865 97.0248 119.906L96.2881 120.666L96.0943 120.467L96.0929 120.466C96.0509 120.424 95.9944 120.401 95.9354 120.401C95.8764 120.401 95.8199 120.424 95.7779 120.466L95.7763 120.467C95.735 120.51 95.7119 120.567 95.7119 120.626C95.7119 120.686 95.7351 120.743 95.7764 120.786L96.1292 121.148C96.1499 121.169 96.1746 121.186 96.2019 121.198C96.2293 121.21 96.2587 121.216 96.2885 121.216C96.3182 121.216 96.3477 121.21 96.3751 121.198C96.4024 121.186 96.4272 121.169 96.4478 121.148L97.3414 120.226C97.3828 120.183 97.4058 120.126 97.4058 120.067ZM95.7913 120.498C95.7608 120.534 95.744 120.579 95.744 120.626C95.744 120.677 95.7638 120.727 95.7994 120.763L96.1522 121.126C96.1699 121.144 96.1911 121.159 96.2145 121.169C96.2379 121.179 96.263 121.184 96.2885 121.184C96.3139 121.184 96.3391 121.179 96.3625 121.169C96.3859 121.159 96.4071 121.144 96.4248 121.126L97.3184 120.204C97.3212 120.201 97.3239 120.198 97.3264 120.195C97.3239 120.198 97.3212 120.201 97.3184 120.204L96.4248 121.126C96.4071 121.144 96.386 121.159 96.3626 121.169C96.3391 121.179 96.314 121.184 96.2885 121.184C96.2631 121.184 96.2379 121.179 96.2145 121.169C96.1911 121.159 96.1699 121.144 96.1522 121.126L95.7994 120.763C95.7639 120.727 95.744 120.677 95.744 120.626C95.744 120.579 95.7608 120.534 95.7913 120.498Z" fill="#009AA4"/>
<path d="M98.0576 123.392C98.0576 123.24 98.2011 123.117 98.3781 123.117H101.797C101.974 123.117 102.117 123.24 102.117 123.392C102.117 123.543 101.974 123.666 101.797 123.666H98.3781C98.2011 123.666 98.0576 123.543 98.0576 123.392Z" fill="#51CFFF"/>
<path d="M95.9264 124.08C95.8611 124.017 95.8593 123.913 95.9225 123.848L97.0258 122.707C97.089 122.642 97.1932 122.64 97.2585 122.703C97.3238 122.766 97.3255 122.87 97.2624 122.936L96.1591 124.076C96.0959 124.142 95.9917 124.143 95.9264 124.08Z" fill="#51CFFF"/>
<path fill-rule="evenodd" clip-rule="evenodd" d="M95.8763 123.803L96.9795 122.662C97.0673 122.572 97.2121 122.569 97.3029 122.657C97.3936 122.745 97.396 122.89 97.3082 122.98L96.205 124.121C96.1172 124.212 95.9724 124.214 95.8816 124.126C95.7909 124.039 95.7885 123.894 95.8763 123.803ZM95.9223 123.848C95.8591 123.913 95.8609 124.017 95.9262 124.08C95.9915 124.144 96.0957 124.142 96.1589 124.076L97.2622 122.936C97.3254 122.87 97.3236 122.766 97.2583 122.703C97.193 122.64 97.0888 122.642 97.0256 122.707L95.9223 123.848Z" fill="#51CFFF"/>
<path d="M97.2587 124.08C97.324 124.017 97.3257 123.913 97.2625 123.848L96.1593 122.707C96.0961 122.642 95.9919 122.64 95.9266 122.703C95.8612 122.766 95.8595 122.87 95.9227 122.936L97.026 124.076C97.0891 124.142 97.1933 124.143 97.2587 124.08Z" fill="#51CFFF"/>
<path fill-rule="evenodd" clip-rule="evenodd" d="M97.3083 123.803L96.2051 122.662C96.1173 122.572 95.9725 122.569 95.8817 122.657C95.7909 122.745 95.7885 122.89 95.8763 122.98L96.9796 124.121C97.0674 124.212 97.2122 124.214 97.3029 124.126C97.3937 124.039 97.3961 123.894 97.3083 123.803ZM97.2622 123.848C97.3254 123.913 97.3237 124.017 97.2584 124.08C97.193 124.144 97.0888 124.142 97.0257 124.076L95.9224 122.936C95.8592 122.87 95.8609 122.766 95.9263 122.703C95.9916 122.64 96.0958 122.642 96.159 122.707L97.2622 123.848Z" fill="#51CFFF"/>
<path d="M98.0576 117.571C98.0576 117.42 98.2011 117.297 98.3781 117.297H101.797C101.974 117.297 102.117 117.42 102.117 117.571C102.117 117.723 101.974 117.846 101.797 117.846H98.3781C98.2011 117.846 98.0576 117.723 98.0576 117.571Z" fill="#51CFFF"/>
<path d="M95.9264 118.26C95.8611 118.197 95.8593 118.093 95.9225 118.027L97.0258 116.887C97.089 116.821 97.1932 116.82 97.2585 116.883C97.3238 116.946 97.3255 117.05 97.2624 117.115L96.1591 118.256C96.0959 118.321 95.9917 118.323 95.9264 118.26Z" fill="#51CFFF"/>
<path fill-rule="evenodd" clip-rule="evenodd" d="M95.8763 117.983L96.9795 116.842C97.0673 116.751 97.2121 116.749 97.3029 116.837C97.3936 116.924 97.396 117.069 97.3082 117.16L96.205 118.301C96.1172 118.391 95.9724 118.394 95.8816 118.306C95.7909 118.218 95.7885 118.073 95.8763 117.983ZM95.9223 118.027C95.8591 118.093 95.8609 118.197 95.9262 118.26C95.9915 118.323 96.0957 118.321 96.1589 118.256L97.2622 117.115C97.3254 117.05 97.3236 116.946 97.2583 116.883C97.193 116.819 97.0888 116.821 97.0256 116.887L95.9223 118.027Z" fill="#51CFFF"/>
<path d="M97.2587 118.26C97.324 118.197 97.3257 118.093 97.2625 118.027L96.1593 116.887C96.0961 116.821 95.9919 116.82 95.9266 116.883C95.8612 116.946 95.8595 117.05 95.9227 117.115L97.026 118.256C97.0891 118.321 97.1933 118.323 97.2587 118.26Z" fill="#51CFFF"/>
<path fill-rule="evenodd" clip-rule="evenodd" d="M97.3083 117.983L96.2051 116.842C96.1173 116.751 95.9725 116.749 95.8817 116.837C95.7909 116.924 95.7885 117.069 95.8763 117.16L96.9796 118.301C97.0674 118.391 97.2122 118.394 97.3029 118.306C97.3937 118.218 97.3961 118.073 97.3083 117.983ZM97.2622 118.027C97.3254 118.093 97.3237 118.197 97.2584 118.26C97.193 118.323 97.0888 118.321 97.0257 118.256L95.9224 117.115C95.8592 117.05 95.8609 116.946 95.9263 116.883C95.9916 116.819 96.0958 116.821 96.159 116.887L97.2622 118.027Z" fill="#51CFFF"/>
<path d="M106.581 120.796C106.581 118.951 108.066 117.547 109.902 117.547C111.738 117.547 113.214 118.951 113.214 120.796C113.214 121.642 112.89 122.38 112.377 122.929L112.989 123.667L112.233 124.297L111.603 123.55C111.126 123.865 110.532 124.027 109.902 124.027C108.066 124.027 106.581 122.632 106.581 120.796ZM107.688 120.796C107.688 122.056 108.651 123.01 109.902 123.01C110.28 123.01 110.613 122.92 110.901 122.758L110.019 121.714L110.775 121.075L111.666 122.128C111.936 121.786 112.098 121.309 112.098 120.796C112.098 119.545 111.144 118.564 109.902 118.564C108.651 118.564 107.688 119.545 107.688 120.796ZM114.133 122.128V119.392H115.222V122.038C115.222 122.749 115.645 123.055 116.212 123.055C116.779 123.055 117.202 122.749 117.202 122.029V119.392H118.291V122.101C118.291 123.415 117.337 124.045 116.203 124.045C115.078 124.045 114.133 123.424 114.133 122.128ZM119.877 118.861C119.526 118.861 119.229 118.582 119.229 118.222C119.229 117.862 119.526 117.583 119.877 117.583C120.219 117.583 120.516 117.862 120.516 118.222C120.516 118.582 120.219 118.861 119.877 118.861ZM119.337 123.928V119.392H120.417V123.928H119.337ZM120.977 123.928L123.695 120.355H121.445V119.392H125.585L122.885 122.965H125.459V123.928H120.977ZM128.75 123.928V119.392H129.821V120.04C130.01 119.608 130.451 119.302 131.045 119.302C131.675 119.302 132.098 119.59 132.314 120.094C132.593 119.527 133.142 119.302 133.799 119.302C134.798 119.302 135.374 120.004 135.374 121.12V123.928H134.294V121.273C134.294 120.661 134.006 120.265 133.484 120.265C132.962 120.265 132.584 120.697 132.584 121.318V123.928H131.513V121.273C131.513 120.661 131.225 120.265 130.703 120.265C130.199 120.265 129.821 120.697 129.821 121.318V123.928H128.75ZM136.225 121.696V121.66C136.225 120.202 137.242 119.266 138.601 119.266C139.951 119.266 140.842 120.283 140.842 121.552C140.842 121.552 140.842 121.75 140.824 121.93H137.296C137.332 122.65 137.863 123.118 138.664 123.118C139.213 123.118 139.546 122.938 139.888 122.596L140.536 123.226C139.951 123.847 139.312 124.036 138.628 124.036C137.206 124.036 136.225 123.118 136.225 121.696ZM137.323 121.174H139.744C139.744 120.634 139.231 120.184 138.601 120.184C137.926 120.184 137.368 120.625 137.323 121.174Z" fill="#282E3E"/>
<rect x="89.2578" y="111.178" width="56.9565" height="18.5" rx="3.75" stroke="#D9DDE8" stroke-width="0.5"/>
</g>
<g filter="url(#filter3_d_3083_4479)">
<rect x="26.8755" y="132.464" width="111.834" height="19" rx="4" fill="white"/>
<path d="M41.1679 141.339C41.2139 142.162 40.9898 142.977 40.5296 143.661C40.5211 143.674 40.5154 143.688 40.513 143.704C40.5108 143.719 40.5119 143.734 40.5163 143.749C40.5208 143.764 40.5283 143.777 40.5382 143.789C40.5488 143.801 40.5614 143.81 40.5754 143.816C40.6899 143.865 40.81 143.899 40.933 143.918C40.9589 143.922 40.9824 143.935 40.9994 143.954C41.0155 143.973 41.0244 143.996 41.0246 144.021V145.313C41.0244 145.327 41.0214 145.341 41.016 145.354C41.005 145.38 40.9843 145.401 40.9583 145.412C40.9452 145.417 40.9312 145.419 40.9171 145.419C40.4561 145.424 40.0002 145.323 39.5847 145.123C39.4651 145.064 39.3494 144.998 39.2384 144.924C39.2224 144.913 39.2038 144.907 39.1846 144.906C39.1655 144.905 39.1464 144.909 39.1295 144.918C38.4008 145.298 37.5687 145.431 36.7577 145.299C35.9467 145.166 35.2004 144.774 34.6305 144.183C34.0605 143.591 33.6974 142.83 33.5955 142.015C33.4936 141.199 33.6584 140.373 34.0652 139.659C34.4721 138.945 35.099 138.382 35.8525 138.054C36.6059 137.726 37.4452 137.651 38.245 137.839C39.0448 138.028 39.7621 138.47 40.2895 139.1C40.817 139.73 41.1263 140.514 41.1713 141.335L41.1679 141.339Z" fill="#F0BAFB"/>
<path d="M32.9737 144.799L33.2601 144.513L34.4053 145.658L34.1184 145.944C34.0433 146.019 33.954 146.079 33.8558 146.119C33.7576 146.16 33.6524 146.181 33.5461 146.181C33.4398 146.181 33.3345 146.16 33.2363 146.119C33.1381 146.079 33.0489 146.019 32.9737 145.944C32.8985 145.869 32.8389 145.78 32.7982 145.681C32.7575 145.583 32.7366 145.478 32.7366 145.372C32.7366 145.265 32.7575 145.16 32.7982 145.062C32.8389 144.964 32.8985 144.874 32.9737 144.799Z" fill="#5021E3"/>
<path d="M35.0468 142.726C35.0792 142.694 35.1231 142.676 35.1689 142.676C35.2147 142.676 35.2586 142.694 35.291 142.726L36.1915 143.627C36.224 143.659 36.2422 143.703 36.2422 143.749C36.2422 143.795 36.224 143.839 36.1915 143.871L34.4051 145.658L33.2599 144.513L35.0468 142.726Z" fill="#7A87FF"/>
<path d="M35.3251 140.841C35.5989 140.569 35.9473 140.384 36.3263 140.31C36.7052 140.236 37.0976 140.276 37.4539 140.424C37.8102 140.573 38.1144 140.824 38.3279 141.146C38.5415 141.468 38.6549 141.845 38.6538 142.232C38.6527 142.618 38.5371 142.995 38.3217 143.315C38.1062 143.636 37.8006 143.885 37.4434 144.032C37.0863 144.179 36.6937 144.216 36.3152 144.14C35.9367 144.063 35.5893 143.876 35.3171 143.603C34.952 143.235 34.7478 142.738 34.7493 142.22C34.7508 141.702 34.9579 141.206 35.3251 140.841ZM35.8685 143.054C36.0324 143.219 36.2414 143.332 36.4692 143.378C36.697 143.424 36.9333 143.401 37.1483 143.313C37.3632 143.224 37.5472 143.074 37.6769 142.882C37.8066 142.689 37.8762 142.462 37.8768 142.229C37.8775 141.997 37.8093 141.77 37.6807 141.576C37.5522 141.382 37.3691 141.231 37.1547 141.142C36.9402 141.052 36.704 141.028 36.476 141.073C36.2479 141.118 36.0382 141.229 35.8734 141.393C35.6528 141.613 35.5284 141.911 35.5275 142.222C35.5266 142.534 35.6492 142.833 35.8685 143.054Z" fill="#5021E3"/>
<ellipse cx="1.17952" cy="1.17952" rx="1.17952" ry="1.17952" transform="matrix(-1 0 0 1 37.8809 141.046)" fill="#FBE7FF"/>
<path d="M44.2076 145.464L47.3126 138.885L50.4086 145.464H49.2116L48.6536 144.249H45.9536L45.3956 145.464H44.2076ZM46.3766 143.277H48.2306L47.3036 141.234L46.3766 143.277ZM51.0788 147.201V140.928H52.1588V141.585C52.3118 141.162 52.8428 140.829 53.6078 140.829C54.8858 140.829 55.8758 141.855 55.8758 143.196C55.8758 144.537 54.8858 145.563 53.6078 145.563C52.8428 145.563 52.3118 145.23 52.1588 144.807V147.201H51.0788ZM52.0778 143.196C52.0778 143.988 52.6808 144.582 53.4638 144.582C54.2288 144.582 54.8048 143.988 54.8048 143.196C54.8048 142.404 54.2288 141.81 53.4638 141.81C52.6808 141.81 52.0778 142.404 52.0778 143.196ZM56.7653 147.201V140.928H57.8453V141.585C57.9983 141.162 58.5293 140.829 59.2943 140.829C60.5723 140.829 61.5623 141.855 61.5623 143.196C61.5623 144.537 60.5723 145.563 59.2943 145.563C58.5293 145.563 57.9983 145.23 57.8453 144.807V147.201H56.7653ZM57.7643 143.196C57.7643 143.988 58.3673 144.582 59.1503 144.582C59.9153 144.582 60.4913 143.988 60.4913 143.196C60.4913 142.404 59.9153 141.81 59.1503 141.81C58.3673 141.81 57.7643 142.404 57.7643 143.196ZM62.4338 144.123V139.191H63.5138V143.979C63.5138 144.42 63.6578 144.609 64.0538 144.609C64.1528 144.609 64.2788 144.6 64.3778 144.573V145.536C64.2518 145.572 64.0538 145.59 63.8648 145.59C63.2798 145.59 62.4338 145.428 62.4338 144.123ZM65.3403 146.373C65.4933 146.427 65.6823 146.445 65.8443 146.445C66.0063 146.445 66.1323 146.418 66.2403 146.346C66.3393 146.283 66.4293 146.148 66.5013 145.959L66.6183 145.635L64.7193 140.928H65.8083L67.1403 144.348L68.3913 140.928H69.4803L67.4463 146.202C67.3293 146.517 67.1763 146.805 66.9603 147.012C66.6723 147.282 66.3033 147.39 65.8713 147.39C65.6823 147.39 65.4843 147.363 65.3403 147.318V146.373ZM72.3835 145.464V140.928H73.4545V141.576C73.6435 141.144 74.0845 140.838 74.6785 140.838C75.3085 140.838 75.7315 141.126 75.9475 141.63C76.2265 141.063 76.7755 140.838 77.4325 140.838C78.4315 140.838 79.0075 141.54 79.0075 142.656V145.464H77.9275V142.809C77.9275 142.197 77.6395 141.801 77.1175 141.801C76.5955 141.801 76.2175 142.233 76.2175 142.854V145.464H75.1465V142.809C75.1465 142.197 74.8585 141.801 74.3365 141.801C73.8325 141.801 73.4545 142.233 73.4545 142.854V145.464H72.3835ZM80.2993 146.373C80.4523 146.427 80.6413 146.445 80.8033 146.445C80.9653 146.445 81.0913 146.418 81.1993 146.346C81.2983 146.283 81.3883 146.148 81.4603 145.959L81.5773 145.635L79.6783 140.928H80.7673L82.0993 144.348L83.3503 140.928H84.4393L82.4053 146.202C82.2883 146.517 82.1353 146.805 81.9193 147.012C81.6313 147.282 81.2623 147.39 80.8303 147.39C80.6413 147.39 80.4433 147.363 80.2993 147.318V146.373ZM87.3425 145.464V139.191H88.4135V142.854L90.0875 140.928H91.3295L89.5565 142.953L91.5185 145.464H90.2945L88.8635 143.637L88.4135 144.141V145.464H87.3425ZM92.0446 145.464V140.928H93.1156V141.576C93.3226 141.144 93.8356 140.838 94.4926 140.838C95.5816 140.838 96.2116 141.54 96.2116 142.656V145.464H95.1316V142.809C95.1316 142.197 94.7806 141.801 94.1686 141.801C93.5566 141.801 93.1156 142.233 93.1156 142.854V145.464H92.0446ZM97.0673 143.196C97.0673 141.837 98.1653 140.793 99.5423 140.793C100.91 140.793 102.017 141.837 102.017 143.196C102.017 144.555 100.91 145.599 99.5423 145.599C98.1653 145.599 97.0673 144.555 97.0673 143.196ZM98.1383 143.196C98.1383 143.997 98.7413 144.618 99.5423 144.618C100.334 144.618 100.946 143.997 100.946 143.196C100.946 142.395 100.334 141.774 99.5423 141.774C98.7413 141.774 98.1383 142.395 98.1383 143.196ZM104.085 145.752L102.222 140.928H103.284L104.247 143.484L105.516 140.811L106.776 143.484L107.739 140.928H108.801L106.938 145.752L105.516 142.809L104.085 145.752ZM109.482 144.123V139.191H110.562V143.979C110.562 144.42 110.706 144.609 111.102 144.609C111.201 144.609 111.327 144.6 111.426 144.573V145.536C111.3 145.572 111.102 145.59 110.913 145.59C110.328 145.59 109.482 145.428 109.482 144.123ZM111.903 143.232V143.196C111.903 141.738 112.92 140.802 114.279 140.802C115.629 140.802 116.52 141.819 116.52 143.088C116.52 143.088 116.52 143.286 116.502 143.466H112.974C113.01 144.186 113.541 144.654 114.342 144.654C114.891 144.654 115.224 144.474 115.566 144.132L116.214 144.762C115.629 145.383 114.99 145.572 114.306 145.572C112.884 145.572 111.903 144.654 111.903 143.232ZM113.001 142.71H115.422C115.422 142.17 114.909 141.72 114.279 141.72C113.604 141.72 113.046 142.161 113.001 142.71ZM117.168 143.196C117.168 141.855 118.158 140.829 119.436 140.829C120.201 140.829 120.732 141.162 120.885 141.585V139.191H121.965V145.464H120.885V144.807C120.732 145.23 120.201 145.563 119.436 145.563C118.158 145.563 117.168 144.537 117.168 143.196ZM118.239 143.196C118.239 143.988 118.815 144.582 119.58 144.582C120.363 144.582 120.966 143.988 120.966 143.196C120.966 142.404 120.363 141.81 119.58 141.81C118.815 141.81 118.239 142.404 118.239 143.196ZM123.925 143.178C123.925 143.961 124.501 144.546 125.266 144.546C126.049 144.546 126.652 143.961 126.652 143.178C126.652 142.404 126.049 141.81 125.266 141.81C124.501 141.81 123.925 142.404 123.925 143.178ZM122.854 143.178C122.854 141.855 123.844 140.829 125.122 140.829C125.887 140.829 126.418 141.162 126.571 141.585V140.928H127.651V144.708C127.651 145.662 127.552 146.418 126.886 146.94C126.481 147.255 125.905 147.444 125.284 147.444C124.438 147.444 123.709 147.228 123.088 146.787L123.61 145.986C124.069 146.292 124.555 146.481 125.167 146.481C125.563 146.481 125.923 146.391 126.166 146.211C126.544 145.932 126.598 145.464 126.598 145.059V144.834C126.4 145.194 125.878 145.5 125.122 145.5C123.844 145.5 122.854 144.501 122.854 143.178ZM128.532 143.232V143.196C128.532 141.738 129.549 140.802 130.908 140.802C132.258 140.802 133.149 141.819 133.149 143.088C133.149 143.088 133.149 143.286 133.131 143.466H129.603C129.639 144.186 130.17 144.654 130.971 144.654C131.52 144.654 131.853 144.474 132.195 144.132L132.843 144.762C132.258 145.383 131.619 145.572 130.935 145.572C129.513 145.572 128.532 144.654 128.532 143.232ZM129.63 142.71H132.051C132.051 142.17 131.538 141.72 130.908 141.72C130.233 141.72 129.675 142.161 129.63 142.71Z" fill="#282E3E"/>
<rect x="27.1255" y="132.714" width="111.334" height="18.5" rx="3.75" stroke="#D9DDE8" stroke-width="0.5"/>
</g>
</g>
</g>
<defs>
<filter id="filter0_d_3083_4479" x="10.9564" y="4.81071" width="178.838" height="63.8381" filterUnits="userSpaceOnUse" color-interpolation-filters="sRGB">
<feFlood flood-opacity="0" result="BackgroundImageFix"/>
<feColorMatrix in="SourceAlpha" type="matrix" values="0 0 0 0 0 0 0 0 0 0 0 0 0 0 0 0 0 0 127 0" result="hardAlpha"/>
<feOffset dy="1.72976"/>
<feGaussianBlur stdDeviation="3.45953"/>
<feColorMatrix type="matrix" values="0 0 0 0 0.188235 0 0 0 0 0.207843 0 0 0 0 0.270588 0 0 0 0.2 0"/>
<feBlend mode="normal" in2="BackgroundImageFix" result="effect1_dropShadow_3083_4479"/>
<feBlend mode="normal" in="SourceGraphic" in2="effect1_dropShadow_3083_4479" result="shape"/>
</filter>
<filter id="filter1_d_3083_4479" x="26.0302" y="110.506" width="61.2873" height="20.6906" filterUnits="userSpaceOnUse" color-interpolation-filters="sRGB">
<feFlood flood-opacity="0" result="BackgroundImageFix"/>
<feColorMatrix in="SourceAlpha" type="matrix" values="0 0 0 0 0 0 0 0 0 0 0 0 0 0 0 0 0 0 127 0" result="hardAlpha"/>
<feOffset dy="0.42265"/>
<feGaussianBlur stdDeviation="0.42265"/>
<feColorMatrix type="matrix" values="0 0 0 0 0.188235 0 0 0 0 0.207843 0 0 0 0 0.270588 0 0 0 0.08 0"/>
<feBlend mode="normal" in2="BackgroundImageFix" result="effect1_dropShadow_3083_4479"/>
<feBlend mode="normal" in="SourceGraphic" in2="effect1_dropShadow_3083_4479" result="shape"/>
</filter>
<filter id="filter2_d_3083_4479" x="88.1625" y="110.506" width="59.1471" height="20.6906" filterUnits="userSpaceOnUse" color-interpolation-filters="sRGB">
<feFlood flood-opacity="0" result="BackgroundImageFix"/>
<feColorMatrix in="SourceAlpha" type="matrix" values="0 0 0 0 0 0 0 0 0 0 0 0 0 0 0 0 0 0 127 0" result="hardAlpha"/>
<feOffset dy="0.42265"/>
<feGaussianBlur stdDeviation="0.42265"/>
<feColorMatrix type="matrix" values="0 0 0 0 0.188235 0 0 0 0 0.207843 0 0 0 0 0.270588 0 0 0 0.08 0"/>
<feBlend mode="normal" in2="BackgroundImageFix" result="effect1_dropShadow_3083_4479"/>
<feBlend mode="normal" in="SourceGraphic" in2="effect1_dropShadow_3083_4479" result="shape"/>
</filter>
<filter id="filter3_d_3083_4479" x="26.0302" y="132.041" width="113.525" height="20.6906" filterUnits="userSpaceOnUse" color-interpolation-filters="sRGB">
<feFlood flood-opacity="0" result="BackgroundImageFix"/>
<feColorMatrix in="SourceAlpha" type="matrix" values="0 0 0 0 0 0 0 0 0 0 0 0 0 0 0 0 0 0 127 0" result="hardAlpha"/>
<feOffset dy="0.42265"/>
<feGaussianBlur stdDeviation="0.42265"/>
<feColorMatrix type="matrix" values="0 0 0 0 0.188235 0 0 0 0 0.207843 0 0 0 0 0.270588 0 0 0 0.08 0"/>
<feBlend mode="normal" in2="BackgroundImageFix" result="effect1_dropShadow_3083_4479"/>
<feBlend mode="normal" in="SourceGraphic" in2="effect1_dropShadow_3083_4479" result="shape"/>
</filter>
<clipPath id="clip0_3083_4479">
<rect width="200" height="200" rx="6" fill="white"/>
</clipPath>
<clipPath id="clip1_3083_4479">
<rect x="17.938" y="10" width="165" height="180" rx="10" fill="white"/>
</clipPath>
</defs>
</svg>
