<svg width="200" height="230" viewBox="0 0 200 230" fill="none" xmlns="http://www.w3.org/2000/svg">
<g clip-path="url(#clip0_3083_5338)">
<rect width="200" height="200" rx="6" fill="#FAFFBB"/>
<path fill-rule="evenodd" clip-rule="evenodd" d="M29.3713 147.329C30.6767 147.329 31.9286 147.848 32.8521 148.77C33.7756 149.693 34.295 150.944 34.2962 152.25V220.042C34.295 221.347 33.7756 222.599 32.8521 223.521C31.9286 224.444 30.6767 224.962 29.3713 224.962C28.0663 224.962 26.8148 224.444 25.8921 223.521C24.9693 222.598 24.451 221.347 24.451 220.042V152.25C24.451 150.945 24.9693 149.693 25.8921 148.771C26.8148 147.848 28.0663 147.329 29.3713 147.329ZM41.2491 160.561V211.818C41.2491 213.123 41.7675 214.374 42.6902 215.297C43.613 216.22 44.8645 216.738 46.1694 216.738C46.8159 216.739 47.4563 216.612 48.0538 216.365C48.6513 216.118 49.1942 215.756 49.6516 215.299C50.109 214.842 50.4718 214.299 50.7194 213.702C50.9669 213.105 51.0944 212.465 51.0944 211.818L51.0944 160.561C51.1145 159.902 51.0021 159.245 50.7638 158.63C50.5255 158.015 50.1661 157.455 49.707 156.981C49.2479 156.508 48.6984 156.132 48.0911 155.875C47.4838 155.618 46.8311 155.485 46.1717 155.485C45.5123 155.485 44.8596 155.618 44.2523 155.875C43.6451 156.132 43.0956 156.508 42.6365 156.981C42.1774 157.455 41.818 158.015 41.5797 158.63C41.3414 159.245 41.2289 159.902 41.2491 160.561ZM58.0472 121.926L58.0472 250.526C58.0484 251.832 58.5677 253.083 59.491 254.007C60.4144 254.93 61.6663 255.449 62.9721 255.451C64.2775 255.449 65.529 254.93 66.4516 254.006C67.3742 253.083 67.8925 251.831 67.8925 250.526V121.926C67.8534 120.647 67.3176 119.433 66.3987 118.542C65.4798 117.651 64.25 117.152 62.9698 117.152C61.6897 117.152 60.4599 117.651 59.541 118.542C58.6221 119.433 58.0863 120.647 58.0472 121.926ZM74.8499 137.459V235.081C74.8481 235.73 74.9748 236.373 75.2227 236.973C75.4706 237.573 75.8348 238.118 76.2943 238.577C76.7538 239.035 77.2996 239.398 77.9001 239.645C78.5006 239.892 79.144 240.017 79.7933 240.014C81.0994 240.014 82.3521 239.496 83.2757 238.572C84.1993 237.648 84.7182 236.396 84.7182 235.09V137.468C84.7384 136.809 84.6259 136.153 84.3876 135.538C84.1493 134.923 83.7899 134.363 83.3308 133.889C82.8717 133.416 82.3222 133.04 81.715 132.783C81.1077 132.526 80.455 132.393 79.7956 132.393C79.1362 132.393 78.4834 132.526 77.8762 132.783C77.2689 133.04 76.7194 133.416 76.2603 133.889C75.8012 134.363 75.4418 134.923 75.2035 135.538C74.9652 136.153 74.8528 136.809 74.8729 137.468L74.8499 137.459ZM91.6481 98.8251L91.6481 273.807C91.6475 274.453 91.7743 275.093 92.0213 275.691C92.2683 276.288 92.6306 276.831 93.0876 277.289C93.5445 277.746 94.0872 278.109 94.6844 278.356C95.2817 278.604 95.9219 278.731 96.5684 278.731C97.2153 278.732 97.856 278.605 98.4538 278.358C99.0516 278.11 99.5948 277.748 100.052 277.29C100.51 276.833 100.872 276.29 101.12 275.692C101.367 275.094 101.494 274.453 101.493 273.807V98.8251C101.513 98.166 101.401 97.5096 101.163 96.8948C100.924 96.28 100.565 95.7193 100.106 95.246C99.6469 94.7727 99.0974 94.3963 98.4901 94.1394C97.8828 93.8824 97.2301 93.75 96.5707 93.75C95.9113 93.75 95.2586 93.8824 94.6513 94.1394C94.044 94.3963 93.4945 94.7727 93.0354 95.246C92.5763 95.7193 92.217 96.28 91.9787 96.8948C91.7403 97.5096 91.6279 98.166 91.6481 98.8251ZM108.446 114.353V258.366C108.444 259.013 108.57 259.654 108.816 260.253C109.062 260.851 109.424 261.395 109.881 261.854C110.337 262.312 110.88 262.677 111.477 262.925C112.074 263.174 112.715 263.303 113.362 263.304C114.667 263.304 115.918 262.786 116.841 261.863C117.764 260.941 118.282 259.689 118.282 258.384L118.282 114.353C118.243 113.074 117.707 111.86 116.788 110.969C115.87 110.077 114.64 109.579 113.36 109.579C112.08 109.579 110.85 110.077 109.931 110.969C109.012 111.86 108.476 113.074 108.437 114.353H108.446ZM125.249 129.886V242.92C125.249 243.567 125.376 244.206 125.623 244.803C125.871 245.4 126.233 245.943 126.69 246.4C127.147 246.856 127.689 247.219 128.286 247.466C128.883 247.713 129.523 247.841 130.169 247.841C131.475 247.841 132.727 247.322 133.65 246.4C134.574 245.477 135.093 244.226 135.094 242.92L135.094 129.886C135.114 129.227 135.002 128.57 134.764 127.956C134.525 127.341 134.166 126.78 133.707 126.307C133.248 125.833 132.698 125.457 132.091 125.2C131.484 124.943 130.831 124.811 130.172 124.811C129.512 124.811 128.859 124.943 128.252 125.2C127.645 125.457 127.095 125.833 126.636 126.307C126.177 126.78 125.818 127.341 125.579 127.956C125.341 128.57 125.229 129.227 125.249 129.886ZM142.047 145.414V227.475C142.047 228.781 142.566 230.034 143.49 230.957C144.413 231.881 145.666 232.4 146.972 232.4C148.277 232.399 149.529 231.879 150.451 230.956C151.374 230.032 151.892 228.78 151.892 227.475V145.414C151.912 144.755 151.8 144.099 151.562 143.484C151.323 142.869 150.964 142.308 150.505 141.835C150.046 141.362 149.496 140.985 148.889 140.728C148.282 140.471 147.629 140.339 146.97 140.339C146.31 140.339 145.658 140.471 145.05 140.728C144.443 140.985 143.894 141.362 143.434 141.835C142.975 142.308 142.616 142.869 142.378 143.484C142.139 144.099 142.027 144.755 142.047 145.414ZM158.845 160.942V212.03C158.825 212.689 158.937 213.345 159.176 213.96C159.414 214.575 159.773 215.136 160.233 215.609C160.692 216.082 161.241 216.459 161.848 216.716C162.456 216.973 163.108 217.105 163.768 217.105C164.427 217.105 165.08 216.973 165.687 216.716C166.294 216.459 166.844 216.082 167.303 215.609C167.762 215.136 168.122 214.575 168.36 213.96C168.598 213.345 168.711 212.689 168.69 212.03V160.942C168.651 159.663 168.116 158.449 167.197 157.557C166.278 156.666 165.048 156.168 163.768 156.168C162.488 156.168 161.258 156.666 160.339 157.557C159.42 158.449 158.884 159.663 158.845 160.942ZM175.648 176.452V196.589C175.687 197.869 176.223 199.083 177.142 199.974C178.061 200.865 179.29 201.363 180.571 201.363C181.851 201.363 183.081 200.865 183.999 199.974C184.918 199.083 185.454 197.869 185.493 196.589V176.452C185.513 175.793 185.401 175.136 185.163 174.522C184.924 173.907 184.565 173.346 184.106 172.873C183.647 172.399 183.097 172.023 182.49 171.766C181.883 171.509 181.23 171.377 180.571 171.377C179.911 171.377 179.258 171.509 178.651 171.766C178.044 172.023 177.494 172.399 177.035 172.873C176.576 173.346 176.217 173.907 175.979 174.522C175.74 175.136 175.628 175.793 175.648 176.452ZM-138.118 147.329C-136.812 147.329 -135.56 147.847 -134.637 148.77C-133.713 149.693 -133.194 150.944 -133.193 152.249L-133.193 220.042C-133.194 221.347 -133.713 222.598 -134.637 223.521C-135.56 224.444 -136.812 224.962 -138.118 224.962C-139.423 224.962 -140.674 224.443 -141.597 223.521C-142.52 222.598 -143.038 221.347 -143.038 220.042L-143.038 152.249C-143.038 150.944 -142.52 149.693 -141.597 148.77C-140.674 147.848 -139.423 147.329 -138.118 147.329ZM-126.24 106.398L-126.24 265.98C-126.24 267.285 -125.722 268.536 -124.799 269.459C-123.876 270.382 -122.625 270.9 -121.32 270.9C-120.673 270.901 -120.033 270.774 -119.435 270.527C-118.838 270.28 -118.295 269.918 -117.837 269.461C-117.38 269.004 -117.017 268.461 -116.77 267.864C-116.522 267.267 -116.395 266.627 -116.395 265.98L-116.395 106.398C-116.375 105.739 -116.487 105.083 -116.725 104.468C-116.964 103.853 -117.323 103.292 -117.782 102.819C-118.241 102.346 -118.791 101.969 -119.398 101.712C-120.005 101.456 -120.658 101.323 -121.317 101.323C-121.977 101.323 -122.629 101.456 -123.237 101.712C-123.844 101.969 -124.393 102.346 -124.853 102.819C-125.312 103.292 -125.671 103.853 -125.909 104.468C-126.148 105.083 -126.26 105.739 -126.24 106.398ZM-109.442 121.926L-109.442 250.526C-109.441 251.831 -108.921 253.083 -107.998 254.007C-107.075 254.93 -105.823 255.449 -104.517 255.45C-103.212 255.449 -101.96 254.93 -101.037 254.006C-100.115 253.083 -99.5966 251.831 -99.5966 250.526L-99.5966 121.926C-99.6357 120.647 -100.171 119.433 -101.09 118.542C-102.009 117.651 -103.239 117.152 -104.519 117.152C-105.799 117.152 -107.029 117.651 -107.948 118.542C-108.867 119.433 -109.403 120.647 -109.442 121.926ZM-92.6391 137.459L-92.6391 235.08C-92.6409 235.73 -92.5142 236.373 -92.2663 236.973C-92.0185 237.573 -91.6543 238.118 -91.1947 238.576C-90.7352 239.035 -90.1895 239.398 -89.589 239.645C-88.9884 239.892 -88.345 240.017 -87.6958 240.014C-86.3896 240.014 -85.1369 239.495 -84.2133 238.572C-83.2897 237.648 -82.7708 236.396 -82.7708 235.09L-82.7708 137.468C-82.7507 136.809 -82.8631 136.153 -83.1014 135.538C-83.3397 134.923 -83.6991 134.362 -84.1582 133.889C-84.6173 133.416 -85.1668 133.039 -85.7741 132.782C-86.3814 132.525 -87.0341 132.393 -87.6935 132.393C-88.3529 132.393 -89.0056 132.525 -89.6129 132.782C-90.2201 133.039 -90.7696 133.416 -91.2287 133.889C-91.6878 134.362 -92.0472 134.923 -92.2855 135.538C-92.5238 136.153 -92.6363 136.809 -92.6161 137.468L-92.6391 137.459ZM-75.841 160.209V212.423C-75.8416 213.069 -75.7148 213.709 -75.4678 214.307C-75.2208 214.904 -74.8584 215.447 -74.4015 215.905C-73.9445 216.362 -73.4019 216.725 -72.8046 216.972C-72.2074 217.22 -71.5672 217.347 -70.9206 217.347C-70.2737 217.348 -69.633 217.221 -69.0352 216.974C-68.4374 216.726 -67.8943 216.364 -67.4368 215.906C-66.9794 215.449 -66.6166 214.906 -66.3693 214.308C-66.1221 213.71 -65.9951 213.069 -65.9957 212.423V160.209C-65.9756 159.55 -66.088 158.893 -66.3263 158.278C-66.5646 157.664 -66.924 157.103 -67.3831 156.63C-67.8422 156.156 -68.3917 155.78 -68.9989 155.523C-69.6062 155.266 -70.2589 155.134 -70.9184 155.134C-71.5778 155.134 -72.2305 155.266 -72.8377 155.523C-73.445 155.78 -73.9945 156.156 -74.4536 156.63C-74.9127 157.103 -75.2721 157.664 -75.5104 158.278C-75.7487 158.893 -75.8611 159.55 -75.841 160.209ZM-59.0428 143.24L-59.0428 229.479C-59.0447 230.126 -58.9189 230.767 -58.6728 231.366C-58.4267 231.964 -58.065 232.508 -57.6085 232.967C-57.152 233.426 -56.6095 233.79 -56.0122 234.039C-55.4148 234.288 -54.7742 234.416 -54.1271 234.418C-52.8222 234.418 -51.5706 233.899 -50.6479 232.977C-49.7252 232.054 -49.2068 230.802 -49.2068 229.498V143.24C-49.2459 141.96 -49.7816 140.746 -50.7006 139.855C-51.6195 138.964 -52.8493 138.465 -54.1294 138.465C-55.4095 138.465 -56.6394 138.964 -57.5583 139.855C-58.4772 140.746 -59.0129 141.96 -59.0521 143.24H-59.0428ZM-42.2401 129.886V242.92C-42.2401 243.566 -42.1128 244.206 -41.8656 244.803C-41.6183 245.4 -41.2559 245.942 -40.799 246.399C-40.3421 246.856 -39.7997 247.219 -39.2027 247.466C-38.6058 247.713 -37.9659 247.84 -37.3198 247.84C-36.0144 247.84 -34.7624 247.322 -33.8389 246.4C-32.9155 245.477 -32.396 244.226 -32.3948 242.92L-32.3948 129.886C-32.3747 129.227 -32.4871 128.57 -32.7254 127.955C-32.9638 127.341 -33.3231 126.78 -33.7822 126.307C-34.2413 125.833 -34.7908 125.457 -35.3981 125.2C-36.0054 124.943 -36.6581 124.811 -37.3175 124.811C-37.9769 124.811 -38.6296 124.943 -39.2369 125.2C-39.8442 125.457 -40.3936 125.833 -40.8527 126.307C-41.3118 126.78 -41.6712 127.341 -41.9095 127.955C-42.1479 128.57 -42.2603 129.227 -42.2401 129.886ZM-25.442 145.414V227.475C-25.442 228.781 -24.9231 230.034 -23.9995 230.957C-23.0759 231.881 -21.8232 232.4 -20.517 232.4C-19.2117 232.398 -17.9602 231.879 -17.0376 230.956C-16.1149 230.032 -15.5967 228.78 -15.5967 227.475V145.414C-15.5766 144.755 -15.689 144.098 -15.9273 143.484C-16.1656 142.869 -16.525 142.308 -16.9841 141.835C-17.4432 141.361 -17.9927 140.985 -18.5999 140.728C-19.2072 140.471 -19.8599 140.339 -20.5193 140.339C-21.1788 140.339 -21.8315 140.471 -22.4387 140.728C-23.046 140.985 -23.5955 141.361 -24.0546 141.835C-24.5137 142.308 -24.8731 142.869 -25.1114 143.484C-25.3497 144.098 -25.4621 144.755 -25.442 145.414ZM-8.64386 160.942V212.03C-8.664 212.689 -8.55157 213.345 -8.31325 213.96C-8.07494 214.575 -7.71556 215.135 -7.25647 215.609C-6.79736 216.082 -6.24788 216.458 -5.64061 216.715C-5.03333 216.972 -4.38063 217.105 -3.72121 217.105C-3.0618 217.105 -2.40909 216.972 -1.80182 216.715C-1.19453 216.458 -0.645065 216.082 -0.185959 215.609C0.273132 215.135 0.632523 214.575 0.870834 213.96C1.10916 213.345 1.22159 212.689 1.20143 212.03V160.942C1.16232 159.662 0.626556 158.449 -0.292358 157.557C-1.21126 156.666 -2.4411 156.168 -3.72122 156.168C-5.00134 156.168 -6.23116 156.666 -7.15007 157.557C-8.06897 158.449 -8.60475 159.662 -8.64386 160.942ZM8.15889 176.452V196.589C8.198 197.868 8.73378 199.082 9.65269 199.974C10.5716 200.865 11.8014 201.363 13.0815 201.363C14.3617 201.363 15.5915 200.865 16.5104 199.974C17.4293 199.082 17.965 197.868 18.0042 196.589V176.452C18.0243 175.793 17.9119 175.136 17.6736 174.521C17.4353 173.907 17.0759 173.346 16.6168 172.872C16.1577 172.399 15.6082 172.023 15.0009 171.766C14.3936 171.509 13.741 171.376 13.0815 171.376C12.4221 171.376 11.7694 171.509 11.1621 171.766C10.5549 172.023 10.0054 172.399 9.54625 172.872C9.08716 173.346 8.72781 173.907 8.48949 174.521C8.25116 175.136 8.13873 175.793 8.15889 176.452ZM200.394 148.77C199.471 147.847 198.219 147.329 196.913 147.329C195.608 147.329 194.357 147.847 193.434 148.77C192.511 149.693 191.993 150.944 191.993 152.249V220.041C191.993 221.346 192.511 222.598 193.434 223.521C194.357 224.443 195.608 224.962 196.913 224.962C198.219 224.962 199.471 224.443 200.394 223.521C201.318 222.598 201.837 221.347 201.838 220.041V152.249C201.837 150.944 201.318 149.692 200.394 148.77ZM208.791 211.818V160.56C208.771 159.901 208.883 159.245 209.122 158.63C209.36 158.015 209.719 157.454 210.178 156.981C210.638 156.508 211.187 156.131 211.794 155.874C212.402 155.617 213.054 155.485 213.714 155.485C214.373 155.485 215.026 155.617 215.633 155.874C216.24 156.131 216.79 156.508 217.249 156.981C217.708 157.454 218.067 158.015 218.306 158.63C218.544 159.245 218.656 159.901 218.636 160.56V211.818C218.636 212.464 218.509 213.104 218.261 213.702C218.014 214.299 217.651 214.841 217.194 215.298C216.736 215.755 216.193 216.118 215.596 216.365C214.998 216.612 214.358 216.738 213.711 216.738C212.406 216.738 211.155 216.219 210.232 215.297C209.309 214.374 208.791 213.123 208.791 211.818ZM225.589 221.639V150.813C225.628 149.533 226.164 148.319 227.083 147.428C228.002 146.537 229.232 146.038 230.512 146.038C231.792 146.038 233.022 146.537 233.941 147.428C234.86 148.319 235.395 149.533 235.434 150.813V221.639C235.434 222.944 234.916 224.196 233.994 225.12C233.071 226.043 231.82 226.562 230.514 226.564C229.208 226.562 227.956 226.043 227.033 225.12C226.11 224.197 225.59 222.945 225.589 221.639ZM242.392 235.08V137.459L242.415 137.468C242.395 136.809 242.507 136.153 242.746 135.538C242.984 134.923 243.343 134.362 243.802 133.889C244.261 133.416 244.811 133.039 245.418 132.782C246.025 132.525 246.678 132.393 247.338 132.393C247.997 132.393 248.65 132.525 249.257 132.782C249.864 133.039 250.414 133.416 250.873 133.889C251.332 134.362 251.691 134.923 251.93 135.538C252.168 136.153 252.28 136.809 252.26 137.468L252.26 235.089C252.26 236.395 251.741 237.648 250.818 238.572C249.894 239.495 248.641 240.014 247.335 240.014C246.686 240.017 246.043 239.892 245.442 239.645C244.842 239.398 244.296 239.035 243.836 238.576C243.377 238.118 243.013 237.573 242.765 236.973C242.517 236.372 242.39 235.729 242.392 235.08ZM259.19 234.087V138.544C259.17 137.885 259.282 137.228 259.521 136.613C259.759 135.999 260.118 135.438 260.577 134.965C261.037 134.491 261.586 134.115 262.193 133.858C262.801 133.601 263.453 133.469 264.113 133.469C264.772 133.469 265.425 133.601 266.032 133.858C266.639 134.115 267.189 134.491 267.648 134.965C268.107 135.438 268.466 135.999 268.705 136.613C268.943 137.228 269.055 137.885 269.035 138.544V234.087C269.036 234.734 268.909 235.375 268.662 235.973C268.414 236.57 268.052 237.113 267.594 237.571C267.137 238.028 266.594 238.391 265.996 238.638C265.398 238.886 264.757 239.013 264.11 239.012C263.464 239.012 262.824 238.884 262.226 238.637C261.629 238.389 261.087 238.027 260.63 237.569C260.173 237.112 259.81 236.569 259.563 235.971C259.316 235.374 259.189 234.734 259.19 234.087ZM275.988 218.646V154.072H275.979C276.018 152.792 276.554 151.578 277.473 150.687C278.392 149.796 279.622 149.298 280.902 149.298C282.182 149.298 283.412 149.796 284.33 150.687C285.249 151.578 285.785 152.792 285.824 154.072V218.665C285.824 219.97 285.306 221.221 284.383 222.144C283.46 223.067 282.209 223.585 280.904 223.585C280.257 223.584 279.616 223.455 279.019 223.206C278.422 222.957 277.879 222.593 277.423 222.134C276.966 221.676 276.604 221.132 276.358 220.533C276.112 219.935 275.986 219.294 275.988 218.646ZM292.791 242.92L292.791 129.885C292.771 129.226 292.883 128.57 293.122 127.955C293.36 127.34 293.719 126.78 294.178 126.306C294.637 125.833 295.187 125.457 295.794 125.2C296.401 124.943 297.054 124.81 297.714 124.81C298.373 124.81 299.026 124.943 299.633 125.2C300.24 125.457 300.79 125.833 301.249 126.306C301.708 126.78 302.067 127.34 302.306 127.955C302.544 128.57 302.656 129.226 302.636 129.885V242.92C302.635 244.225 302.116 245.477 301.192 246.399C300.269 247.322 299.017 247.84 297.711 247.84C297.065 247.84 296.425 247.713 295.828 247.466C295.231 247.218 294.689 246.856 294.232 246.399C293.775 245.942 293.413 245.4 293.165 244.803C292.918 244.206 292.791 243.566 292.791 242.92ZM309.589 227.475V145.414C309.569 144.755 309.681 144.098 309.92 143.483C310.158 142.869 310.517 142.308 310.976 141.834C311.436 141.361 311.985 140.985 312.592 140.728C313.2 140.471 313.852 140.338 314.512 140.338C315.171 140.338 315.824 140.471 316.431 140.728C317.038 140.985 317.588 141.361 318.047 141.834C318.506 142.308 318.865 142.868 319.104 143.483C319.342 144.098 319.454 144.755 319.434 145.414V227.475C319.434 228.78 318.916 230.032 317.993 230.955C317.071 231.879 315.819 232.398 314.514 232.399C313.208 232.399 311.955 231.881 311.032 230.957C310.108 230.033 309.589 228.781 309.589 227.475ZM326.387 212.029V160.942C326.426 159.662 326.962 158.448 327.881 157.557C328.8 156.666 330.03 156.167 331.31 156.167C332.59 156.167 333.82 156.666 334.739 157.557C335.658 158.448 336.193 159.662 336.232 160.942V212.029C336.253 212.689 336.14 213.345 335.902 213.96C335.664 214.575 335.304 215.135 334.845 215.609C334.386 216.082 333.836 216.458 333.229 216.715C332.622 216.972 331.969 217.105 331.31 217.105C330.65 217.105 329.998 216.972 329.39 216.715C328.783 216.458 328.234 216.082 327.775 215.609C327.315 215.135 326.956 214.575 326.718 213.96C326.479 213.345 326.367 212.689 326.387 212.029ZM343.19 196.589V176.451C343.17 175.792 343.282 175.136 343.521 174.521C343.759 173.906 344.118 173.346 344.577 172.872C345.036 172.399 345.586 172.023 346.193 171.766C346.8 171.509 347.453 171.376 348.113 171.376C348.772 171.376 349.425 171.509 350.032 171.766C350.639 172.023 351.189 172.399 351.648 172.872C352.107 173.346 352.466 173.906 352.705 174.521C352.943 175.136 353.055 175.792 353.035 176.451V196.589C352.996 197.868 352.46 199.082 351.541 199.973C350.623 200.865 349.393 201.363 348.113 201.363C346.832 201.363 345.603 200.865 344.684 199.973C343.765 199.082 343.229 197.868 343.19 196.589Z" fill="#D3F0EB"/>
<g filter="url(#filter0_d_3083_5338)">
<rect width="87.4905" height="134.135" rx="4.82499" transform="matrix(-1.49246e-08 1 -0.999988 0.00493462 185.479 73.9397)" fill="#F6F7FB"/>
</g>
<path d="M83.3693 138.424L83.3693 131.916L87.0483 131.916L87.0483 132.588L84.0977 132.588L84.0977 134.652L86.8709 134.652L86.8709 135.324L84.0977 135.324L84.0977 137.752L87.1136 137.752L87.1136 138.424L83.3693 138.424ZM88.8175 138.424L88.8175 134.362L88.0612 134.362L88.0612 133.718L88.8175 133.718L88.8175 133.326C88.8175 132.635 88.9669 132.299 89.275 132.047C89.5645 131.795 89.938 131.776 90.2368 131.776C90.3675 131.776 90.5262 131.795 90.6009 131.813L90.6009 132.467C90.4609 132.43 90.3021 132.42 90.1621 132.42C89.7139 132.42 89.5085 132.635 89.5085 133.233L89.5085 133.718L90.3955 133.718L90.3955 134.362L89.5085 134.362L89.5085 138.424L88.8175 138.424ZM91.9634 138.424L91.9634 134.362L91.2071 134.362L91.2071 133.718L91.9634 133.718L91.9634 133.326C91.9634 132.635 92.1128 132.299 92.4209 132.047C92.7104 131.795 93.0839 131.776 93.3827 131.776C93.5134 131.776 93.6721 131.795 93.7468 131.813L93.7468 132.467C93.6068 132.43 93.448 132.42 93.308 132.42C92.8598 132.42 92.6544 132.635 92.6544 133.233L92.6544 133.718L93.5414 133.718L93.5414 134.362L92.6544 134.362L92.6544 138.424L91.9634 138.424ZM94.9506 132.934C94.7078 132.934 94.4837 132.738 94.4837 132.467C94.4837 132.196 94.7078 132 94.9506 132C95.1933 132 95.4174 132.196 95.4174 132.467C95.4174 132.738 95.1933 132.934 94.9506 132.934ZM94.6051 138.424L94.6051 133.718L95.2961 133.718L95.296 138.424L94.6051 138.424ZM96.3873 136.071C96.3873 134.633 97.5078 133.578 98.8897 133.578C99.5994 133.578 100.216 133.821 100.673 134.288L100.253 134.773C99.8981 134.409 99.4219 134.222 98.8897 134.222C97.8439 134.222 97.0783 135.016 97.0783 136.071C97.0783 137.126 97.8439 137.92 98.8897 137.92C99.4219 137.92 99.8981 137.733 100.253 137.369L100.673 137.855C100.216 138.321 99.5994 138.564 98.8897 138.564C97.5078 138.564 96.3873 137.509 96.3873 136.071ZM101.999 132.934C101.756 132.934 101.532 132.738 101.532 132.467C101.532 132.196 101.756 132 101.999 132C102.242 132 102.466 132.196 102.466 132.467C102.466 132.738 102.242 132.934 101.999 132.934ZM101.654 138.424L101.654 133.718L102.345 133.718L102.345 138.424L101.654 138.424ZM103.436 136.127L103.436 136.09C103.436 134.568 104.444 133.578 105.789 133.578C107.096 133.578 107.955 134.624 107.955 135.922C107.955 135.922 107.955 136.081 107.946 136.221L104.127 136.221C104.164 137.257 104.818 137.92 105.808 137.92C106.489 137.92 106.863 137.677 107.255 137.266L107.712 137.715C107.124 138.368 106.489 138.546 105.808 138.546C104.407 138.546 103.436 137.593 103.436 136.127ZM104.174 135.614L107.218 135.614C107.218 134.857 106.583 134.222 105.789 134.222C104.93 134.222 104.22 134.848 104.174 135.614ZM109.012 138.424L109.012 133.718L109.703 133.718L109.703 134.512C109.946 134.008 110.478 133.643 111.216 133.643C112.299 133.643 112.962 134.362 112.962 135.418L112.962 138.424L112.271 138.424L112.271 135.567C112.271 134.783 111.804 134.288 111.038 134.288C110.254 134.288 109.703 134.82 109.703 135.614L109.703 138.424L109.012 138.424ZM113.995 136.071C113.995 134.633 115.116 133.578 116.498 133.578C117.207 133.578 117.824 133.821 118.281 134.288L117.861 134.773C117.506 134.409 117.03 134.222 116.498 134.222C115.452 134.222 114.686 135.016 114.686 136.071C114.686 137.126 115.452 137.92 116.498 137.92C117.03 137.92 117.506 137.733 117.861 137.369L118.281 137.855C117.824 138.321 117.207 138.564 116.498 138.564C115.116 138.564 113.995 137.509 113.995 136.071ZM119.318 139.657C119.467 139.713 119.626 139.731 119.785 139.731C119.925 139.731 120.055 139.713 120.186 139.629C120.317 139.535 120.438 139.367 120.56 139.059L120.765 138.527L118.86 133.718L119.551 133.718L121.101 137.687L122.595 133.718L123.286 133.718L121.157 139.227C121.045 139.517 120.905 139.797 120.7 140.021C120.457 140.273 120.139 140.376 119.785 140.376C119.626 140.376 119.448 140.348 119.318 140.292L119.318 139.657ZM126.52 138.424L126.52 133.718L127.211 133.718L127.211 134.512C127.444 134.008 127.948 133.643 128.658 133.643C128.761 133.643 128.882 133.653 128.948 133.662L128.948 134.409C128.835 134.381 128.677 134.362 128.481 134.362C127.752 134.362 127.211 134.895 127.211 135.688L127.211 138.424L126.52 138.424ZM131.039 138.564C129.993 138.564 129.395 138.041 129.395 137.201C129.395 136.305 130.012 135.819 131.347 135.632C132.439 135.483 132.607 135.446 132.607 135.063L132.607 134.969C132.607 134.633 132.327 134.222 131.543 134.222C130.964 134.222 130.525 134.465 130.189 134.932L129.685 134.54C130.086 133.914 130.749 133.578 131.562 133.578C132.729 133.578 133.298 134.12 133.298 135.044L133.298 137.556C133.298 137.911 133.494 137.92 133.691 137.92L133.775 137.92L133.775 138.415C133.644 138.499 133.448 138.518 133.298 138.518C133.028 138.518 132.86 138.359 132.804 138.265C132.747 138.172 132.719 138.088 132.701 137.967C132.383 138.406 131.72 138.564 131.039 138.564ZM131.113 137.92C132.075 137.92 132.607 137.49 132.607 136.837L132.607 135.978C132.467 136.09 132.103 136.174 131.384 136.277C130.497 136.398 130.086 136.687 130.086 137.182C130.086 137.649 130.46 137.92 131.113 137.92ZM134.681 138.424L134.681 133.718L135.372 133.718L135.372 134.512C135.615 134.008 136.147 133.643 136.885 133.643C137.968 133.643 138.631 134.362 138.631 135.418L138.631 138.424L137.94 138.424L137.94 135.567C137.94 134.783 137.473 134.288 136.707 134.288C135.923 134.288 135.372 134.82 135.372 135.614L135.372 138.424L134.681 138.424ZM140.196 139.209C140.738 139.601 141.298 139.834 142.064 139.834C142.531 139.834 142.941 139.722 143.231 139.489C143.66 139.134 143.716 138.546 143.716 138.032L143.716 137.64C143.483 138.041 142.969 138.48 142.045 138.48C140.728 138.48 139.664 137.453 139.664 136.034C139.664 134.615 140.728 133.578 142.045 133.578C142.969 133.578 143.483 134.017 143.716 134.418L143.716 133.718L144.407 133.718L144.407 137.64C144.407 138.658 144.361 139.433 143.66 139.984C143.259 140.301 142.689 140.478 142.073 140.478C141.233 140.478 140.486 140.226 139.841 139.759L140.196 139.209ZM140.355 136.034C140.355 137.07 141.074 137.836 142.045 137.836C143.053 137.836 143.8 137.07 143.8 136.034C143.8 134.997 143.053 134.222 142.045 134.222C141.074 134.222 140.355 134.997 140.355 136.034ZM145.491 136.127L145.491 136.09C145.491 134.568 146.499 133.578 147.844 133.578C149.151 133.578 150.01 134.624 150.01 135.922C150.01 135.922 150.01 136.081 150.001 136.221L146.182 136.221C146.219 137.257 146.873 137.92 147.862 137.92C148.544 137.92 148.918 137.677 149.31 137.266L149.767 137.715C149.179 138.368 148.544 138.546 147.862 138.546C146.462 138.546 145.491 137.593 145.491 136.127ZM146.228 135.614L149.272 135.614C149.272 134.857 148.637 134.222 147.844 134.222C146.985 134.222 146.275 134.848 146.228 135.614ZM150.703 137.378L151.291 137.136C151.478 137.593 151.907 137.892 152.505 137.892C153.252 137.892 153.513 137.575 153.513 137.192C153.513 136.697 153.103 136.491 152.384 136.239C151.618 135.959 151.058 135.614 151.058 134.885C151.058 134.11 151.655 133.578 152.524 133.578C153.131 133.578 153.635 133.896 153.915 134.409L153.383 134.745C153.224 134.418 152.897 134.213 152.542 134.213C152.029 134.213 151.749 134.512 151.749 134.848C151.749 135.287 152.15 135.446 152.72 135.66C153.719 136.024 154.204 136.379 154.204 137.201C154.204 137.995 153.625 138.536 152.514 138.536C151.674 138.536 150.974 138.153 150.703 137.378ZM85.2111 150.424L85.2111 146.362L84.4548 146.362L84.4548 145.718L85.2111 145.718L85.2111 145.326C85.2111 144.635 85.3605 144.299 85.6686 144.047C85.9581 143.795 86.3316 143.776 86.6304 143.776C86.7611 143.776 86.9199 143.795 86.9946 143.813L86.9946 144.467C86.8545 144.43 86.6958 144.42 86.5557 144.42C86.1075 144.42 85.9021 144.635 85.9021 145.233L85.9021 145.718L86.7891 145.718L86.7891 146.362L85.9021 146.362L85.9021 150.424L85.2111 150.424ZM87.8435 150.424L87.8435 145.718L88.5344 145.718L88.5344 146.512C88.7679 146.008 89.2721 145.643 89.9817 145.643C90.0844 145.643 90.2058 145.653 90.2712 145.662L90.2712 146.409C90.1591 146.381 90.0004 146.362 89.8043 146.362C89.076 146.362 88.5344 146.895 88.5344 147.688L88.5344 150.424L87.8435 150.424ZM90.8113 148.071C90.8113 146.633 91.9318 145.578 93.3137 145.578C94.6956 145.578 95.8161 146.633 95.8161 148.071C95.8161 149.509 94.6956 150.564 93.3137 150.564C91.9318 150.564 90.8113 149.509 90.8113 148.071ZM91.5023 148.071C91.5023 149.126 92.2679 149.92 93.3137 149.92C94.3595 149.92 95.1252 149.126 95.1252 148.071C95.1252 147.016 94.3595 146.222 93.3137 146.222C92.2679 146.222 91.5023 147.016 91.5023 148.071ZM96.8982 150.424L96.8982 145.718L97.5891 145.718L97.5891 146.512C97.8039 146.008 98.2614 145.643 98.9151 145.643C99.5874 145.643 100.064 145.998 100.297 146.577C100.568 145.998 101.091 145.643 101.8 145.643C102.771 145.643 103.369 146.362 103.369 147.418L103.369 150.424L102.678 150.424L102.678 147.567C102.678 146.783 102.286 146.288 101.614 146.288C100.951 146.288 100.456 146.82 100.456 147.614L100.456 150.424L99.7648 150.424L99.7648 147.567C99.7648 146.783 99.3819 146.288 98.719 146.288C98.0747 146.288 97.5891 146.82 97.5891 147.614L97.5891 150.424L96.8982 150.424ZM107.711 150.424L107.711 144.588L106.815 144.588L106.815 143.916L108.44 143.916L108.44 150.424L107.711 150.424ZM109.87 148.277C109.87 147.595 110.253 147.016 110.757 146.269C110.813 146.194 110.86 146.12 112.317 143.916L113.185 143.916L111.691 146.138C111.859 146.101 112.046 146.082 112.223 146.082C113.362 146.082 114.399 147.035 114.399 148.267C114.399 149.565 113.381 150.564 112.139 150.564C110.897 150.564 109.87 149.556 109.87 148.277ZM110.608 148.305C110.608 149.21 111.28 149.873 112.139 149.873C112.998 149.873 113.708 149.164 113.708 148.305C113.708 147.446 112.998 146.745 112.139 146.745C111.252 146.745 110.608 147.408 110.608 148.305ZM116.213 146.689C115.41 146.689 114.757 146.036 114.757 145.233C114.757 144.43 115.41 143.776 116.213 143.776C117.016 143.776 117.67 144.43 117.67 145.233C117.67 146.036 117.016 146.689 116.213 146.689ZM115.392 150.424L119.603 143.916L120.322 143.916L116.111 150.424L115.392 150.424ZM116.213 146.12C116.671 146.12 117.054 145.727 117.054 145.233C117.054 144.747 116.671 144.346 116.213 144.346C115.747 144.346 115.373 144.747 115.373 145.233C115.373 145.727 115.747 146.12 116.213 146.12ZM118.016 149.108C118.016 148.305 118.669 147.651 119.472 147.651C120.275 147.651 120.929 148.305 120.929 149.108C120.929 149.911 120.275 150.564 119.472 150.564C118.669 150.564 118.016 149.911 118.016 149.108ZM118.632 149.108C118.632 149.603 119.005 149.995 119.472 149.995C119.93 149.995 120.313 149.603 120.313 149.108C120.313 148.622 119.93 148.221 119.472 148.221C119.005 148.221 118.632 148.622 118.632 149.108ZM124.753 149.108L124.753 146.362L124.202 146.362L124.202 145.718L124.753 145.718L124.753 143.916L125.444 143.916L125.444 145.718L126.537 145.718L126.537 146.362L125.444 146.362L125.444 149.108C125.444 149.715 125.65 149.92 126.098 149.92C126.229 149.92 126.359 149.92 126.537 149.892L126.537 150.518C126.378 150.555 126.266 150.564 126.107 150.564C125.538 150.564 124.753 150.415 124.753 149.108ZM127.258 148.071C127.258 146.633 128.379 145.578 129.761 145.578C131.143 145.578 132.263 146.633 132.263 148.071C132.263 149.509 131.143 150.564 129.761 150.564C128.379 150.564 127.258 149.509 127.258 148.071ZM127.949 148.071C127.949 149.126 128.715 149.92 129.761 149.92C130.806 149.92 131.572 149.126 131.572 148.071C131.572 147.016 130.806 146.222 129.761 146.222C128.715 146.222 127.949 147.016 127.949 148.071ZM135.665 148.977L138.093 143.916L138.878 143.916L136.805 148.305L139.232 148.305L139.232 146.885L139.961 146.885L139.961 150.424L139.232 150.424L139.232 148.977L135.665 148.977ZM141.265 148.277C141.265 147.595 141.648 147.016 142.152 146.269C142.208 146.194 142.255 146.12 143.712 143.916L144.58 143.916L143.086 146.138C143.254 146.101 143.441 146.082 143.618 146.082C144.758 146.082 145.794 147.035 145.794 148.267C145.794 149.565 144.776 150.564 143.534 150.564C142.292 150.564 141.265 149.556 141.265 148.277ZM142.003 148.305C142.003 149.21 142.675 149.873 143.534 149.873C144.393 149.873 145.103 149.164 145.103 148.305C145.103 147.446 144.393 146.745 143.534 146.745C142.647 146.745 142.003 147.408 142.003 148.305ZM147.609 146.689C146.806 146.689 146.152 146.036 146.152 145.233C146.152 144.43 146.806 143.776 147.609 143.776C148.412 143.776 149.065 144.43 149.065 145.233C149.065 146.036 148.412 146.689 147.609 146.689ZM146.787 150.424L150.998 143.916L151.717 143.916L147.506 150.424L146.787 150.424ZM147.609 146.12C148.066 146.12 148.449 145.727 148.449 145.233C148.449 144.747 148.066 144.346 147.609 144.346C147.142 144.346 146.768 144.747 146.768 145.233C146.768 145.727 147.142 146.12 147.609 146.12ZM149.411 149.108C149.411 148.305 150.064 147.651 150.867 147.651C151.67 147.651 152.324 148.305 152.324 149.108C152.324 149.911 151.67 150.564 150.867 150.564C150.064 150.564 149.411 149.911 149.411 149.108ZM150.027 149.108C150.027 149.603 150.401 149.995 150.867 149.995C151.325 149.995 151.708 149.603 151.708 149.108C151.708 148.622 151.325 148.221 150.867 148.221C150.401 148.221 150.027 148.622 150.027 149.108Z" fill="black"/>
<g filter="url(#filter1_d_3083_5338)">
<rect width="87.4905" height="134.135" rx="4.82498" transform="matrix(-1.40723e-08 1 -0.999988 0.00493462 148.654 37.9078)" fill="white"/>
</g>
<rect x="39.6953" y="62.1921" width="65.2324" height="46.7005" rx="8.30231" fill="#423ED8"/>
<rect x="46.5146" y="54.9277" width="65.2324" height="46.7005" rx="8.30231" fill="#51CFFF"/>
<path d="M61.3405 89.7676H96.9218L104.335 101.628H53.9277L61.3405 89.7676Z" fill="#CBF1FF"/>
<rect x="58.3755" y="69.7529" width="41.5115" height="11.1192" rx="5.55958" fill="#423ED8"/>
<circle cx="63.9351" cy="75.3125" r="5.55958" fill="white"/>
<circle cx="94.3276" cy="75.3125" r="5.55958" fill="white"/>
<path d="M119.819 62.3085L113.432 64.7546C113.274 64.8115 113.131 64.9024 113.012 65.0208C112.894 65.1391 112.803 65.2821 112.746 65.4395L110.263 71.7993C110.175 72.0263 110.02 72.2213 109.819 72.3588C109.618 72.4964 109.38 72.57 109.136 72.57C108.892 72.57 108.654 72.4964 108.453 72.3588C108.252 72.2213 108.097 72.0263 108.009 71.7993L105.558 65.4231C105.5 65.2649 105.408 65.1207 105.29 64.9999C105.172 64.8791 105.03 64.7844 104.872 64.7219L98.5835 62.2432C98.3562 62.1553 98.1608 62.0008 98.023 61.7999C97.8853 61.5991 97.8115 61.3614 97.8115 61.118C97.8115 60.8746 97.8853 60.6369 98.023 60.4361C98.1608 60.2353 98.3562 60.0808 98.5835 59.9928L104.97 57.563C105.13 57.5007 105.274 57.4063 105.395 57.2856C105.516 57.165 105.61 57.0207 105.673 56.8618L108.139 50.502C108.231 50.2764 108.388 50.0833 108.59 49.9473C108.792 49.8113 109.031 49.7386 109.275 49.7386C109.518 49.7386 109.757 49.8113 109.959 49.9473C110.161 50.0833 110.318 50.2764 110.41 50.502L112.844 56.8944C112.906 57.0513 113.001 57.1933 113.122 57.3113C113.243 57.4293 113.388 57.5206 113.546 57.5793L119.917 60.058C120.141 60.1554 120.33 60.3183 120.459 60.5251C120.589 60.732 120.652 60.9732 120.642 61.2168C120.631 61.4605 120.547 61.6953 120.4 61.8901C120.253 62.085 120.05 62.2309 119.819 62.3085Z" fill="#E372FF"/>
<path d="M101.55 91.3085L98.357 92.5315C98.2782 92.56 98.2066 92.6054 98.1473 92.6646C98.088 92.7238 98.0425 92.7953 98.014 92.874L96.7725 96.0539C96.7285 96.1674 96.6511 96.2649 96.5505 96.3337C96.45 96.4024 96.3309 96.4392 96.209 96.4392C96.0871 96.4392 95.968 96.4024 95.8675 96.3337C95.7669 96.2649 95.6895 96.1674 95.6455 96.0539L94.4203 92.8658C94.3909 92.7867 94.3452 92.7146 94.2861 92.6542C94.227 92.5938 94.1559 92.5464 94.0773 92.5152L90.9329 91.2759C90.8192 91.2319 90.7215 91.1546 90.6526 91.0542C90.5837 90.9538 90.5469 90.8349 90.5469 90.7132C90.5469 90.5915 90.5837 90.4727 90.6526 90.3723C90.7215 90.2719 90.8192 90.1946 90.9329 90.1506L94.1263 88.9358C94.2059 88.9046 94.2781 88.8574 94.3386 88.797C94.399 88.7367 94.4463 88.6646 94.4775 88.5851L95.7108 85.4052C95.7566 85.2924 95.8351 85.1959 95.9362 85.1279C96.0374 85.0599 96.1565 85.0236 96.2784 85.0236C96.4003 85.0236 96.5195 85.0599 96.6206 85.1279C96.7217 85.1959 96.8002 85.2924 96.8461 85.4052L98.063 88.6015C98.0943 88.6799 98.1417 88.7509 98.2022 88.8099C98.2627 88.8689 98.3349 88.9145 98.4142 88.9439L101.599 90.1833C101.711 90.2319 101.806 90.3134 101.871 90.4168C101.935 90.5202 101.967 90.6408 101.962 90.7627C101.957 90.8845 101.915 91.0019 101.841 91.0993C101.768 91.1967 101.666 91.2697 101.55 91.3085Z" fill="#E372FF"/>
<path d="M66.6607 115.529L61.9327 117.34C61.816 117.382 61.71 117.449 61.6222 117.537C61.5345 117.624 61.4671 117.73 61.4248 117.847L59.5869 122.554C59.5216 122.723 59.4071 122.867 59.2582 122.969C59.1093 123.071 58.933 123.125 58.7525 123.125C58.572 123.125 58.3958 123.071 58.2469 122.969C58.098 122.867 57.9834 122.723 57.9182 122.554L56.1044 117.834C56.0608 117.717 55.9931 117.611 55.9056 117.521C55.8181 117.432 55.7128 117.362 55.5965 117.315L50.9411 115.481C50.7728 115.415 50.6282 115.301 50.5262 115.152C50.4242 115.004 50.3696 114.828 50.3696 114.648C50.3696 114.467 50.4242 114.291 50.5262 114.143C50.6282 113.994 50.7728 113.88 50.9411 113.815L55.6691 112.016C55.7869 111.97 55.8938 111.9 55.9833 111.811C56.0728 111.721 56.1428 111.614 56.189 111.497L58.0149 106.789C58.0828 106.622 58.199 106.479 58.3487 106.378C58.4984 106.278 58.6748 106.224 58.8553 106.224C59.0358 106.224 59.2122 106.278 59.3619 106.378C59.5116 106.479 59.6278 106.622 59.6957 106.789L61.4974 111.521C61.5437 111.637 61.6139 111.742 61.7035 111.83C61.793 111.917 61.9 111.985 62.0174 112.028L66.7332 113.863C66.899 113.935 67.0391 114.056 67.1349 114.209C67.2307 114.362 67.2778 114.54 67.2699 114.721C67.2621 114.901 67.1996 115.075 67.0909 115.219C66.9821 115.363 66.8321 115.471 66.6607 115.529Z" fill="#E372FF"/>
<path d="M135.873 91.3518L133.26 92.3525C133.195 92.3758 133.137 92.4129 133.088 92.4614C133.04 92.5098 133.002 92.5683 132.979 92.6327L131.963 95.2344C131.927 95.3273 131.864 95.407 131.782 95.4633C131.699 95.5196 131.602 95.5497 131.502 95.5497C131.403 95.5497 131.305 95.5196 131.223 95.4633C131.141 95.407 131.077 95.3273 131.041 95.2344L130.039 92.626C130.015 92.5612 129.977 92.5022 129.929 92.4528C129.881 92.4034 129.822 92.3647 129.758 92.3391L127.185 91.3251C127.092 91.2891 127.013 91.2259 126.956 91.1438C126.9 91.0616 126.87 90.9644 126.87 90.8648C126.87 90.7652 126.9 90.668 126.956 90.5858C127.013 90.5037 127.092 90.4405 127.185 90.4045L129.798 89.4105C129.863 89.385 129.922 89.3464 129.972 89.297C130.021 89.2476 130.06 89.1886 130.086 89.1236L131.095 86.5219C131.132 86.4296 131.196 86.3506 131.279 86.2949C131.362 86.2393 131.459 86.2096 131.559 86.2096C131.659 86.2096 131.756 86.2393 131.839 86.2949C131.922 86.3506 131.986 86.4296 132.024 86.5219L133.019 89.137C133.045 89.2011 133.084 89.2592 133.133 89.3075C133.183 89.3558 133.242 89.3931 133.307 89.4172L135.913 90.4312C136.004 90.471 136.082 90.5376 136.135 90.6223C136.188 90.7069 136.214 90.8055 136.209 90.9052C136.205 91.0049 136.17 91.1009 136.11 91.1807C136.05 91.2604 135.967 91.32 135.873 91.3518Z" fill="#E372FF"/>
<path d="M78.4976 45.9855L75.8847 46.9861C75.8202 47.0094 75.7617 47.0466 75.7132 47.095C75.6647 47.1435 75.6274 47.2019 75.6041 47.2663L74.5884 49.8681C74.5523 49.9609 74.489 50.0407 74.4067 50.097C74.3244 50.1532 74.227 50.1834 74.1273 50.1834C74.0275 50.1834 73.9301 50.1532 73.8478 50.097C73.7656 50.0407 73.7022 49.9609 73.6662 49.8681L72.6638 47.2596C72.6398 47.1949 72.6023 47.1359 72.554 47.0865C72.5056 47.0371 72.4475 46.9983 72.3832 46.9728L69.8104 45.9588C69.7174 45.9228 69.6375 45.8596 69.5812 45.7774C69.5248 45.6953 69.4946 45.598 69.4946 45.4985C69.4946 45.3989 69.5248 45.3016 69.5812 45.2195C69.6375 45.1373 69.7174 45.0741 69.8104 45.0382L72.4233 44.0441C72.4884 44.0187 72.5475 43.98 72.5969 43.9307C72.6464 43.8813 72.6851 43.8223 72.7106 43.7573L73.7197 41.1555C73.7572 41.0632 73.8214 40.9842 73.9041 40.9286C73.9868 40.873 74.0843 40.8433 74.1841 40.8433C74.2838 40.8433 74.3813 40.873 74.464 40.9286C74.5468 40.9842 74.611 41.0632 74.6485 41.1555L75.6442 43.7706C75.6698 43.8348 75.7086 43.8929 75.7581 43.9412C75.8076 43.9894 75.8667 44.0268 75.9315 44.0508L78.5377 45.0648C78.6293 45.1047 78.7067 45.1713 78.7596 45.2559C78.8126 45.3405 78.8386 45.4392 78.8343 45.5389C78.8299 45.6386 78.7954 45.7346 78.7353 45.8143C78.6752 45.894 78.5923 45.9537 78.4976 45.9855Z" fill="#E372FF"/>
</g>
<defs>
<filter id="filter0_d_3083_5338" x="35.4696" y="60.0724" width="165.884" height="119.856" filterUnits="userSpaceOnUse" color-interpolation-filters="sRGB">
<feFlood flood-opacity="0" result="BackgroundImageFix"/>
<feColorMatrix in="SourceAlpha" type="matrix" values="0 0 0 0 0 0 0 0 0 0 0 0 0 0 0 0 0 0 127 0" result="hardAlpha"/>
<feOffset dy="1.98445"/>
<feGaussianBlur stdDeviation="7.93779"/>
<feColorMatrix type="matrix" values="0 0 0 0 0.188235 0 0 0 0 0.207843 0 0 0 0 0.270588 0 0 0 0.08 0"/>
<feBlend mode="normal" in2="BackgroundImageFix" result="effect1_dropShadow_3083_5338"/>
<feBlend mode="normal" in="SourceGraphic" in2="effect1_dropShadow_3083_5338" result="shape"/>
</filter>
<filter id="filter1_d_3083_5338" x="-1.35458" y="24.0405" width="165.884" height="119.856" filterUnits="userSpaceOnUse" color-interpolation-filters="sRGB">
<feFlood flood-opacity="0" result="BackgroundImageFix"/>
<feColorMatrix in="SourceAlpha" type="matrix" values="0 0 0 0 0 0 0 0 0 0 0 0 0 0 0 0 0 0 127 0" result="hardAlpha"/>
<feOffset dy="1.98445"/>
<feGaussianBlur stdDeviation="7.93779"/>
<feColorMatrix type="matrix" values="0 0 0 0 0.188235 0 0 0 0 0.207843 0 0 0 0 0.270588 0 0 0 0.08 0"/>
<feBlend mode="normal" in2="BackgroundImageFix" result="effect1_dropShadow_3083_5338"/>
<feBlend mode="normal" in="SourceGraphic" in2="effect1_dropShadow_3083_5338" result="shape"/>
</filter>
<clipPath id="clip0_3083_5338">
<rect width="200" height="200" rx="6" fill="white"/>
</clipPath>
</defs>
</svg>
